<svg width="14" height="8" viewBox="0 0 14 8" fill="none" xmlns="http://www.w3.org/2000/svg">
<path fill-rule="evenodd" clip-rule="evenodd" d="M7.36418 5.94965L12.6673 0.646505C12.8626 0.451243 13.1792 0.451243 13.3744 0.646505C13.5697 0.841767 13.5697 1.15835 13.3744 1.35361L7.71757 7.01047C7.52231 7.20573 7.20573 7.20573 7.01047 7.01047C7.00691 7.00691 7.00341 7.00331 6.99999 6.99967L1.35371 1.3534C1.15845 1.15814 1.15845 0.841552 1.35371 0.64629C1.54897 0.451028 1.86555 0.451028 2.06082 0.64629L7.36418 5.94965Z" fill="#D9D9D9"/>
<path d="M7.36418 5.94965L7.1874 6.12643L7.36418 6.3032L7.54095 6.12643L7.36418 5.94965ZM12.6673 0.646505L12.8441 0.823282L12.6673 0.646505ZM6.99999 6.99967L7.18199 6.82812L7.17676 6.8229L6.99999 6.99967ZM1.35371 1.3534L1.17693 1.53017L1.35371 1.3534ZM1.35371 0.64629L1.53049 0.823067L1.35371 0.64629ZM2.06082 0.64629L1.88404 0.823067L1.88404 0.823067L2.06082 0.64629ZM7.54095 6.12643L12.8441 0.823282L12.4905 0.469729L7.1874 5.77287L7.54095 6.12643ZM12.8441 0.823282C12.9417 0.72565 13.1 0.725651 13.1976 0.823281L13.5512 0.469728C13.2583 0.176835 12.7834 0.176835 12.4905 0.469729L12.8441 0.823282ZM13.1976 0.823281C13.2953 0.920912 13.2953 1.0792 13.1976 1.17683L13.5512 1.53039C13.8441 1.23749 13.8441 0.762621 13.5512 0.469728L13.1976 0.823281ZM13.1976 1.17683L7.5408 6.83369L7.89435 7.18724L13.5512 1.53039L13.1976 1.17683ZM7.5408 6.83369C7.44316 6.93132 7.28487 6.93132 7.18724 6.83369L6.83369 7.18724C7.12658 7.48014 7.60146 7.48014 7.89435 7.18724L7.5408 6.83369ZM7.18724 6.83369C7.18542 6.83187 7.18365 6.83004 7.18191 6.82819L6.81807 7.17115C6.82318 7.17658 6.82839 7.18194 6.83369 7.18724L7.18724 6.83369ZM7.17676 6.8229L1.53049 1.17662L1.17693 1.53017L6.82321 7.17645L7.17676 6.8229ZM1.53049 1.17662C1.43286 1.07899 1.43286 0.920698 1.53049 0.823067L1.17693 0.469514C0.88404 0.762407 0.88404 1.23728 1.17693 1.53017L1.53049 1.17662ZM1.53049 0.823067C1.62812 0.725436 1.78641 0.725436 1.88404 0.823067L2.23759 0.469513C1.9447 0.17662 1.46983 0.17662 1.17693 0.469514L1.53049 0.823067ZM1.88404 0.823067L7.1874 6.12643L7.54095 5.77287L2.23759 0.469513L1.88404 0.823067Z" fill="#D9D9D9"/>
</svg>
