<svg xmlns="http://www.w3.org/2000/svg" xml:space="preserve" viewBox="0 0 400 400"><path fill="#F7F7F7" d="M91 1c73.354 0 146.708 0 220.57.347 1.61 1.517 2.7 2.7 3.819 3.855 2.592 2.677 5.276 5.27 7.766 8.038 1.238 1.377 2.13 3.065 3.179 4.612 1.448-1.436 2.885-2.883 4.348-4.303.846-.821 1.733-1.6 2.602-2.398.57 1.034 1.358 2.01 1.648 3.117.285 1.093.12 2.32.059 3.484-.224 4.29 1.514 6.145 5.922 7.595 3.836 1.262 6.79 5.269 10.063 8.143 1.86 1.634 3.54 3.473 5.381 5.13.7.63 2.229.886 2.358 1.521 1.42 6.972 9.627 7.319 12.417 12.908 1.181 2.367 2.634 4.596 3.89 6.927 2.51 4.655 4.367 9.847 7.712 13.782 1.564 1.84 4.716 2.457 5.316 5.658.159.846 1.02 2.147 1.675 2.221 6.09.694 5.19 5.073 5.364 9.237.15 3.603.359 7.743 5.911 7.126 0 68.02 0 136.042-.385 204.538-4.393.827-5.687 3.332-5.624 6.988.051 2.95.01 5.902.01 9.35-6.937-.66-8.34 3.563-8.373 8.564-7.621 1.227-7.621 1.227-7.628 8.843-.001 1.166.435 2.602-.086 3.448-1.541 2.505-3.17 6.439-5.29 6.81-5.004.877-6.896 3.337-6.919 7.523-5.698 2.356-11.356 3.986-11.854 11.238-.06.882-1.36 2.448-1.987 2.4-5.065-.386-6.006 3-6.367 7.436-8.405-2.109-11.81 2.227-12.836 9.535-.09.642-.269 1.549-.714 1.812-1.315.778-2.948 2.053-4.167 1.79-8.079-1.74-8.054-1.854-10.773 6.726-2.647 0-5.45.06-8.25-.014-4.175-.11-6.754 1.48-6.757 6.013-67.688 0-135.375 0-203.571-.364-2.005-5.123-5.103-6.01-9.841-5.2-2.534.432-7.732-1.087-7.766-1.89-.214-5.173-3.68-6.37-7.429-7.728-2.272-.824-4.623-1.63-6.64-2.914-4.261-2.715-9.829-4.899-12.046-8.871-2.169-3.887-3.68-6.584-6.384-6.5-3.03-4.13-4.791-7.649-7.551-9.99-3.081-2.613-7.55-3.573-8.516-8.454-.15-.761-1.798-1.557-2.86-1.751-5.906-1.081-7.67-4.746-7.47-10.388.279-7.831-.051-7.983-5.489-9.196-3.028-3.68-5.12-6.155-7.126-8.698-.577-.73-1.107-1.608-1.318-2.499C7.976 312.273 5.373 310.395 1 311c0-70.688 0-141.375.37-212.574 5.806-2.117 4.346-6.508 4.56-10.392.125-2.25.936-6.312 1.697-6.374 4.742-.386 5.486-3.524 5.747-7.028 8.59-1.672 8.362-1.682 8.765-10.435.122-2.653 1.388-5.62 3.028-7.753 2.634-3.424 5.992-6.298 9.105-9.341.532-.521 1.361-1.022 2.064-1.037 3.638-.075 4.415-2.241 5.05-5.418 1.265-6.31 4.71-9.092 9.194-8.309 5.419.946 7.137-.475 7.43-6.083.068-1.28.27-2.553.454-4.224 5.675.616 7.8-2.443 7.774-7.798 4.391-1.18 8.913-1.717 12.77-3.61C83.22 8.554 86.829 5.25 90.655 2.42c.3-.223.238-.936.345-1.421M48.162 109.962c-3.855-.02-5.053 2.095-5.281 5.712-.133 2.11-1.437 4.156-2.265 6.21-.481 1.194-1.454 2.32-1.533 3.521-.34 5.111 1.472 10.855-4.645 14.062-.211.111-.263.593-.325.914-1.05 5.42-2.058 10.849-3.152 16.26-.258 1.281-.613 2.603-1.23 3.741-2.052 3.793-4.327 7.467-6.323 11.287-.494.944-.388 2.275-.335 3.418.269 5.791.75 11.576.9 17.369.358 13.88-1.342 27.896 2.962 41.5.542 1.713.77 3.523 1.204 5.272.932 3.753 1.806 7.524 2.887 11.234 1.266 4.346 1.608 9.64 4.366 12.714 4.145 4.622 5.186 9.885 6.633 15.304.826 3.094 1.075 8.301 2.776 8.847 5.864 1.884 5.4 8.222 9.566 11.331 3.443 2.57 4.254 8.66 7.692 11.249 5.998 4.516 6.63 11.127 9.064 17.085 1.226 2.998 2.69 5.215 6.457 5.063 3.303-.134 8.248-1.09 9.61.608 3.108 3.876 8.517 6.705 9.869 10.185 2.067 5.324 4.452 5.523 7.822 4.745 1.987 3.178 3.42 6.032 5.374 8.468 3.427 4.271 8.354 4.32 13.264 3.92 3.148-.255 5.624.563 6.818 3.731 1.325 3.512 3.881 4.538 7.487 4.374 2.216-.1 4.967-.046 6.622 1.136 6.607 4.717 14.4 5.242 21.878 6.647 4.414.83 9.333-.923 12.908 3.45.616.755 2.492.65 3.787.654 11.995.045 23.99.088 35.985-.043 1.685-.018 3.367-.946 5.037-1.496 2.402-.79 4.735-1.996 7.196-2.359 5.843-.863 12.433 2.032 17.299-3.657.335-.391 1.268-.235 1.902-.412 5.695-1.588 11.402-3.137 17.07-4.816 3.255-.964 6.472-2.077 9.649-3.276.986-.372 2.303-1.078 2.573-1.919.99-3.071 3.357-3.262 5.939-4.259 3.481-1.344 8.998.394 10.194-4.959.705-3.154 3.134-3.48 4.929-5.085 3.799-3.395 8.482-6.784 10.723-10.91 2.174-4.002 4.057-4.754 7.8-4.814 2.274-.037 4.677-.604 6.774-1.508 5.814-2.508 5.517-9.21 8.826-13.519 3.02-3.932 4.74-9.293 8.472-12.13 3.997-3.04 4.03-10.4 10.96-9.99.17.01.357-1.186.625-1.779.723-1.6 1.475-3.188 2.25-4.764 1.91-3.888 3.88-7.748 5.748-11.655 1.154-2.414 2.15-4.903 3.252-7.342.528-1.168 1.887-2.575 1.583-3.4-1.716-4.67.627-7.786 2.722-11.764 5.617-10.666 6.673-22.896 7.115-34.527.684-17.99-.807-36.077-1.793-54.101-.228-4.167-2.078-8.26-3.297-12.353-1.775-5.957-3.594-11.902-5.521-17.81-.735-2.252-1.723-4.437-2.77-6.566-1.67-3.396-5.078-6.796-4.92-10.058.367-7.597-4.488-9.93-9.658-12.738-1.44-.783-2.912-2.191-3.54-3.665-2.14-5.02-1.858-11.412-8.47-13.752-.707-.25-.843-1.816-1.535-2.46-4.166-3.874-2.816-12.583-11.17-12.763-.258-7.939-8.837-6.34-12.362-10.73-2.79-3.475-8.655-3.431-10.64-8.326-.144-.353-1.56-.24-2.385-.255-1.832-.035-3.674-.13-5.496.011-3.514.274-5.13-.945-5.253-4.767-.055-1.729-1.61-4.54-2.992-4.897-5.573-1.438-11.145-2.254-15.946-6.093-3.888-3.109-8.54-5.261-13.602-8.285-5.665 0-12.798.192-19.905-.157-1.482-.073-4.011-2.08-4.087-3.318-.269-4.372-2.772-4.563-6.094-4.543-14.161.085-28.322.01-42.483.073-1.601.007-4.093-.023-4.644.889-2.354 3.89-5.928 2.852-9.296 3.122-2.1.168-4.19.706-6.238 1.253-3.068.819-6.161 2.72-9.127 2.51-6.721-.474-11.112 4.464-16.834 6.112-2.28.657-4.738 2.258-6.781 1.831-3.533-.738-5.815.4-7.843 2.82-2.336 2.787-4.983 4.27-8.743 3.092-.754-.236-2.494.223-2.541.542-.937 6.422-7.347 7.114-11.016 10.624-1.992 1.907-4.255 3.57-6.553 5.109-3.793 2.542-7.72 4.888-11.568 7.35-.227.146-.379.594-.372.897.103 4.232-4.473 4.478-5.696 6.318-2.857 4.297-6.46 7.08-10.33 10.018-1.905 1.447-3.21 3.676-4.812 5.53-.713.825-1.798 1.47-2.183 2.413-2.57 6.291-4.862 12.721-10.984 17.495z"/><path fill="#F5F5F5" d="M90.531 1c.362.485.425 1.198.124 1.42-3.826 2.83-7.435 6.135-11.647 8.203-3.857 1.894-8.379 2.432-12.77 3.61.026 5.356-2.099 8.415-7.774 7.8-.184 1.67-.386 2.943-.453 4.223-.294 5.608-2.012 7.03-7.431 6.083-4.484-.783-7.93 2-9.193 8.31-.636 3.176-1.413 5.342-5.051 5.417-.703.015-1.532.516-2.064 1.037-3.113 3.043-6.47 5.917-9.105 9.34-1.64 2.133-2.906 5.1-3.028 7.754-.403 8.753-.174 8.763-8.765 10.435-.261 3.504-1.005 6.642-5.747 7.028-.761.062-1.572 4.124-1.696 6.374-.215 3.884 1.245 8.275-4.56 9.924C1 65.742 1 33.485 1 1h89.531zM303.469 401c-.466-4.533 2.113-6.124 6.288-6.013 2.8.074 5.603.014 8.25.014 2.719-8.58 2.694-8.465 10.773-6.726 1.219.263 2.852-1.012 4.167-1.79.445-.263.624-1.17.714-1.812 1.026-7.308 4.431-11.644 12.836-9.535.361-4.436 1.302-7.822 6.367-7.436.627.048 1.927-1.518 1.987-2.4.498-7.252 6.156-8.882 11.854-11.238.023-4.186 1.915-6.646 6.92-7.523 2.12-.371 3.748-4.305 5.29-6.81.52-.846.084-2.282.085-3.448.007-7.616.007-7.616 7.628-8.843.033-5.001 1.436-9.224 8.373-8.564 0-3.448.041-6.4-.01-9.35-.063-3.656 1.23-6.16 5.624-6.519.385 14.014.385 28.035.023 42.599-1.755 3.616-3.97 6.593-4.347 9.787-.556 4.73-3.375 4.826-6.871 6.075-2.647.944-4.212 4.896-6.3 7.475-.142.175-.763-.072-.953.104a62.541 62.541 0 0 0-3.137 3.112c-1.524 1.617-3.126 3.181-4.486 4.93-2.96 3.806-4.893 8.651-10.334 9.842-1.983 8.099-8.474 9.823-15.414 11.178-1.4.273-2.538 1.892-3.796 2.891h-41.531zM1 311.469c4.373-1.074 6.976.804 7.993 5.088.21.891.741 1.768 1.318 2.5 2.006 2.542 4.098 5.018 7.126 8.697 5.438 1.213 5.768 1.365 5.49 9.196-.201 5.642 1.563 9.307 7.469 10.388 1.062.194 2.71.99 2.86 1.75.966 4.882 5.435 5.842 8.516 8.455 2.76 2.341 4.52 5.86 7.55 9.99 2.704-.084 4.216 2.613 6.385 6.5 2.217 3.972 7.785 6.156 12.046 8.87 2.017 1.285 4.368 2.091 6.64 2.915 3.75 1.358 7.215 2.555 7.43 7.728.033.803 5.231 2.322 7.765 1.89 4.738-.81 7.836.077 9.372 5.2-16.314.364-32.668.364-49.493-.04-1.669-1.798-2.826-3.233-4.103-4.552-.248-.256-1.147.146-1.43-.108-2-1.79-5.268-3.453-5.611-5.565-1.102-6.785-7.986-8.15-11.342-12.924-2.725-3.875-5.38-9.889-11.577-10.99-.2-.035-.368-.906-.353-1.38.099-2.98-1.48-3.687-4.222-4.291-1.84-.405-3.578-2.594-4.754-4.384C4.125 353.437 2.666 350.151 1 347v-35.531zM401 97.531c-5.552 1.086-5.76-3.054-5.911-6.657-.174-4.164.727-8.543-5.364-9.237-.655-.074-1.516-1.375-1.675-2.221-.6-3.2-3.752-3.818-5.316-5.658-3.345-3.935-5.203-9.127-7.711-13.782-1.257-2.331-2.71-4.56-3.891-6.927-2.79-5.59-10.997-5.936-12.417-12.908-.13-.635-1.657-.892-2.358-1.522-1.841-1.656-3.52-3.495-5.38-5.129-3.274-2.874-6.228-6.881-10.064-8.143-4.408-1.45-6.146-3.304-5.922-7.595.06-1.164.226-2.391-.06-3.484-.289-1.107-1.077-2.083-1.647-3.117-.869.798-1.756 1.577-2.602 2.398-1.463 1.42-2.9 2.867-4.348 4.303-1.049-1.547-1.941-3.235-3.18-4.612-2.49-2.768-5.173-5.361-7.765-8.038-1.12-1.155-2.21-2.338-3.35-3.855a774.554 774.554 0 0 1 42.492.085c.489 5.889 5.49 11.78 10.764 12.573 3.892.586 6.097 2.826 6.73 6.726.2 1.242.348 2.888 1.167 3.563 3.4 2.804 7.21 5.121 10.542 7.995 1.775 1.53 2.746 3.954 4.334 5.751 1.455 1.648 3.32 2.928 4.874 4.5 1.112 1.124 3.108 2.865 2.824 3.639-2.062 5.62.811 6.307 5.234 5.821v45.531z"/><path fill="#F4F4F4" d="M345.469 401c.79-.999 1.927-2.618 3.327-2.89 6.94-1.356 13.43-3.08 15.414-11.179 5.441-1.19 7.374-6.036 10.334-9.842 1.36-1.749 2.962-3.313 4.486-4.93a62.541 62.541 0 0 1 3.137-3.112c.19-.176.811.071.953-.104 2.088-2.579 3.653-6.53 6.3-7.475 3.496-1.249 6.315-1.345 6.871-6.075.376-3.194 2.592-6.17 4.347-9.319C401 364.261 401 382.522 401 401h-55.531zM401 51.531c-4.423.955-7.296.268-5.234-5.352.284-.774-1.712-2.515-2.824-3.64-1.554-1.571-3.419-2.85-4.874-4.499-1.588-1.797-2.56-4.22-4.334-5.75-3.333-2.875-7.141-5.192-10.542-7.996-.82-.675-.967-2.321-1.168-3.563-.632-3.9-2.837-6.14-6.73-6.726-5.273-.793-10.274-6.684-10.294-12.573C370.264 1 385.528 1 401 1v50.531zM1 347.469c1.666 2.682 3.126 5.968 5.075 8.933 1.176 1.79 2.915 3.979 4.754 4.384 2.743.604 4.32 1.311 4.222 4.29-.015.475.154 1.346.353 1.382 6.196 1.1 8.852 7.114 11.577 10.99 3.356 4.772 10.24 6.138 11.342 12.923.343 2.112 3.611 3.775 5.61 5.565.284.254 1.183-.148 1.431.108 1.277 1.32 2.434 2.754 3.635 4.552C33.069 401 17.138 401 1 401v-53.531z"/><path fill="#F8F9F9" d="M48.536 109.89c5.748-4.702 8.04-11.132 10.61-17.423.385-.943 1.47-1.588 2.183-2.413 1.601-1.854 2.907-4.083 4.812-5.53 3.87-2.939 7.473-5.72 10.33-10.018 1.223-1.84 5.799-2.086 5.696-6.318-.007-.303.145-.751.372-.897 3.849-2.462 7.775-4.808 11.568-7.35 2.298-1.54 4.561-3.202 6.553-5.109 3.669-3.51 10.08-4.202 11.016-10.624.047-.32 1.787-.778 2.541-.542 3.76 1.178 6.407-.305 8.743-3.093 2.028-2.419 4.31-3.557 7.843-2.819 2.043.427 4.5-1.174 6.78-1.83 5.723-1.65 10.114-6.587 16.835-6.112 2.966.21 6.059-1.692 9.127-2.511 2.048-.547 4.137-1.085 6.238-1.253 3.368-.27 6.942.769 9.296-3.122.551-.912 3.043-.882 4.644-.89 14.16-.062 28.322.013 42.483-.072 3.322-.02 5.825.17 6.094 4.543.076 1.237 2.605 3.245 4.087 3.318 7.107.35 14.24.157 19.905.157 5.062 3.024 9.714 5.176 13.602 8.285 4.8 3.839 10.373 4.655 15.946 6.093 1.382.356 2.937 3.168 2.992 4.897.123 3.822 1.739 5.04 5.253 4.767 1.822-.141 3.664-.046 5.496-.011.825.015 2.241-.098 2.384.255 1.986 4.895 7.85 4.85 10.641 8.326 3.525 4.39 12.104 2.791 12.362 10.73 8.354.18 7.004 8.89 11.17 12.764.692.643.828 2.209 1.535 2.46 6.612 2.339 6.33 8.731 8.47 13.75.628 1.475 2.1 2.883 3.54 3.666 5.17 2.808 10.025 5.141 9.658 12.738-.158 3.262 3.25 6.662 4.92 10.058 1.047 2.13 2.035 4.314 2.77 6.566 1.927 5.908 3.746 11.853 5.52 17.81 1.22 4.092 3.07 8.186 3.298 12.353.986 18.024 2.477 36.112 1.793 54.101-.442 11.631-1.498 23.861-7.115 34.527-2.095 3.978-4.438 7.093-2.722 11.763.304.826-1.055 2.233-1.583 3.401-1.102 2.44-2.098 4.928-3.252 7.342-1.868 3.907-3.837 7.767-5.748 11.655a162.018 162.018 0 0 0-2.25 4.764c-.268.593-.456 1.79-.625 1.78-6.93-.411-6.963 6.95-10.96 9.988-3.733 2.838-5.453 8.199-8.472 12.131-3.309 4.31-3.012 11.011-8.826 13.519-2.097.904-4.5 1.471-6.774 1.508-3.743.06-5.626.812-7.8 4.814-2.24 4.126-6.924 7.515-10.723 10.91-1.795 1.604-4.224 1.93-4.929 5.085-1.196 5.353-6.713 3.615-10.194 4.96-2.582.996-4.95 1.187-5.939 4.258-.27.841-1.587 1.547-2.573 1.919-3.177 1.199-6.394 2.312-9.65 3.276-5.667 1.68-11.374 3.228-17.07 4.816-.633.177-1.566.02-1.901.412-4.866 5.689-11.456 2.794-17.299 3.657-2.46.363-4.794 1.568-7.196 2.36-1.67.549-3.352 1.477-5.037 1.495-11.994.13-23.99.088-35.985.043-1.295-.004-3.17.1-3.787-.654-3.575-4.373-8.494-2.62-12.908-3.45-7.478-1.405-15.271-1.93-21.878-6.647-1.655-1.182-4.406-1.236-6.622-1.136-3.606.164-6.162-.862-7.487-4.374-1.194-3.168-3.67-3.986-6.818-3.73-4.91.398-9.837.35-13.264-3.92-1.954-2.437-3.387-5.291-5.374-8.47-3.37.78-5.755.58-7.822-4.744-1.352-3.48-6.761-6.31-9.87-10.185-1.361-1.698-6.306-.742-9.609-.608-3.766.152-5.231-2.065-6.457-5.063-2.434-5.958-3.066-12.57-9.064-17.085-3.438-2.59-4.249-8.679-7.692-11.249-4.166-3.109-3.702-9.447-9.566-11.33-1.701-.547-1.95-5.754-2.776-8.848-1.447-5.419-2.488-10.682-6.633-15.304-2.758-3.075-3.1-8.368-4.366-12.714-1.081-3.71-1.955-7.481-2.887-11.234-.435-1.749-.662-3.559-1.204-5.271-4.304-13.605-2.604-27.62-2.963-41.501-.15-5.793-.63-11.578-.899-17.369-.053-1.143-.159-2.474.335-3.418 1.996-3.82 4.27-7.494 6.324-11.287.616-1.138.97-2.46 1.23-3.741 1.093-5.411 2.102-10.84 3.151-16.26.062-.321.114-.803.325-.914 6.117-3.207 4.306-8.95 4.645-14.062.08-1.2 1.052-2.327 1.533-3.52.828-2.055 2.132-4.1 2.265-6.21.228-3.618 1.426-5.732 5.655-5.785M83 240.999s.028.019-.577.08c-.056.665-.112 1.33-.208 2.64-.06.427-.12.853-.72 1.742.188 1.52.378 3.04.655 5.44-.034 2.36-.067 4.72-.693 7.657.241 3.813.483 7.627.845 11.736 0 0-.053.316-.194 1.092 1.112.918 2.225 1.836 3.965 2.998.639.209 1.277.418 2.302 1.287 1.856.377 3.71 1.052 5.567 1.06 2.621.01 5.244-.708 7.867-.71 45.04-.049 90.082-.047 135.123-.003 2.292.003 4.579.63 6.876.703 4.268.138 8.73.898 12.19-2.72 0 0-.044-.043.743-.099.757-1.634 2.06-3.23 2.178-4.91.539-7.649.745-15.322 2.03-22.99 1.922-.07 3.845-.14 5.968.48 6.282 26.825 37.854 33.006 57.017 25.526 0 0 .064-.097.802-.085 13.682-5.181 21.853-14.743 23.232-29.549.971-10.429-1.028-19.79-9.866-26.388l-16.234 10.562c5.883 4.988 7.48 11.265 4.79 18.07-2.852 7.213-8.982 10.311-16.513 10.946-12.624 1.064-19.18-3.481-24.641-17.318-5.406 0-10.895-.092-16.375.08-1.07.033-2.109 1.09-3.812 1.563-.68-3.075 2.185-6.33 6.555-7.523 1.015 1.186 2.061 3.372 2.983 3.32 4.102-.228 8.32-.623 12.204-1.87 3.825-1.227 5.133-.089 4.873 3.444-.153 2.064-.987 4.072-1.44 6.122-.088.403.171.883.344 1.66l3.594-1.584 1.295 4.44c4.035-1.643 8.17-2.62 7.466-8.04-.688-5.297-1.454-10.585-1.275-15.878 9.35.025 18.027-1.471 26.24-6.879 12.291-8.093 17.627-19.543 18.782-33.49.736-8.88-1.078-16.985-5.56-25.135-4.563-8.296-11.201-13.901-19.085-17.099-11.69-4.74-24.21-2.505-36.277.007-1.556.324-2.574 3.236-4.272 5.443-2.92 2.739-5.841 5.478-9.383 7.951-3.776-2.694-7.552-5.39-11.563-8.565-.515-.132-1.03-.264-1.734-1.084-2.018-1.059-3.935-2.43-6.072-3.125-13.06-4.251-25.19-1.583-36.796 4.52.697-1.661 1.395-3.322 2.091-4.984 1.676-3.998 3.894-6.286 8.753-4.127 5.386 2.393 9.614-1.814 13.34-4.267 2.376-1.565 3.732-2.352 6.146-1.607l.282 5.402c5.992-2.65 6.232-3.063 4.914-7.662 3.503-2.135 5.096-1.2 5.346 2.939.136 2.27.31 4.985 1.583 6.639 1.954 2.537 4.872 4.333 7.245 6.33 10.197 2.167 14.163-7.79 22.226-10.589-3.554-4.332-4.918-1.478-6.002.891l-3.678-4.696c.545-1.722.793-4.42-.038-4.808-4.256-1.989-8.688-3.885-13.262-4.812-3.205-.65-4.151-1.816-4.2-4.821-.055-3.322-.572-6.635-.944-10.542-5.77 4.113-9.887 4.324-10.794.827-1.412-5.445-5.27-5.086-9.472-5.814-5.126-.889-10.047-3.027-15.013-4.752-2.533-.88-4.945-2.852-7.455-2.929-10.815-.33-21.647-.255-32.467-.052-2.368.045-4.878.89-7.038 1.947-5.446 2.665-10.254 6.584-17.002 6.163-2.254-.141-6.043 1.51-6.706 3.262-1.52 4.01-3.798 4.9-7.549 4.576-4.34-.376-7.913.46-10.377 4.958-1.413 2.582-4.29 5.182-7.044 6.027-4.66 1.43-7.051 3.964-9.257 8.26-2.72 5.295-4.19 10.14-2.5 15.741-.774.296-1.548.592-2.896.821-.46-.32-.918-.642-1.486-1.657-4.068-3.117-5.868-7.09-5.07-12.294.129-.843-1.185-1.906-2.052-3.315-.196-.302-.474-.466-1.21-.983-.874.171-1.748.343-3.348.533-.726-.009-1.452-.017-2.625-.257-.598.239-1.195.478-1.886.899 0 0-.143.147-.77.29-1.584-.026-3.168-.053-4.886-.169 0 0-.084-.137-.224-.799-2.743-3.482-5.977-1.921-8.21.062-1.483 1.317-2.426 4.395-2.058 6.4.735 4.001.543 6.483-3.922 8.048-1.95.683-3.154 3.5-4.682 5.399 0 0-.048-.021-.759-.018-1.083.997-2.166 1.995-3.598 3.525-1.228 1.165-2.456 2.33-4.418 3.49-7.925 3.394-8.113 11.486-9.9 17.998-1.48 5.402-.689 11.574-.17 17.34.52 5.76 2.342 11.233 7.876 15.013 0 0 .124.373.08 1.118 3.08 7.572 9.766 11.336 16.16 15.462 1.331.86 3.408 2.73 3.163 3.52-1.85 5.962 1.021 10.475 3.771 15.355 0 0-.243.208-.688.408A1.309 1.309 0 0 0 83 241z"/><path fill="#FCFDFC" d="M117.982 144.037c-2.347-5.614-.878-10.459 1.842-15.755 2.206-4.295 4.597-6.83 9.257-8.26 2.754-.844 5.63-3.444 7.044-6.026 2.464-4.498 6.036-5.334 10.377-4.958 3.75.324 6.029-.566 7.549-4.576.663-1.751 4.452-3.403 6.706-3.262 6.748.42 11.556-3.498 17.002-6.163 2.16-1.058 4.67-1.902 7.038-1.947 10.82-.203 21.652-.278 32.467.052 2.51.077 4.922 2.05 7.455 2.93 4.966 1.724 9.887 3.862 15.013 4.75 4.202.73 8.06.37 9.472 5.815.907 3.497 5.025 3.286 10.794-.827.372 3.907.89 7.22.944 10.542.049 3.005.995 4.172 4.2 4.821 4.574.927 9.006 2.823 13.262 4.812.831.388.583 3.086.038 4.808l3.678 4.696c1.084-2.369 2.448-5.223 6.002-.89-8.063 2.798-12.03 12.755-22.226 10.587-2.373-1.996-5.29-3.792-7.245-6.33-1.274-1.653-1.447-4.367-1.583-6.638-.25-4.14-1.843-5.074-5.346-2.939 1.318 4.6 1.078 5.012-4.914 7.662l-.282-5.402c-2.414-.745-3.77.042-6.146 1.607-3.726 2.453-7.954 6.66-13.34 4.267-4.86-2.159-7.077.129-8.753 4.127-.696 1.662-1.394 3.323-2.077 5.336.015.352-.037.293-.404.235-4.54-.72-7.545 1.399-9.5 4.608-3.54 5.808-6.666 11.869-9.93 17.844-2.498 4.575-1.545 6.97 2.95 7.861-.049 1.107-.13 1.843-.583 2.642-.744 1.513-1.466 2.975-1.422 4.413.126 4.085.565 8.16.88 12.24l-1.42.587 5.09 2.51-1.279 2.183c-4.56 0-9.127-.136-13.682.039-4.505.173-6.054-1.674-5.997-6.231.217-17.315-.054-34.635.181-51.949.064-4.69-1.534-6.307-6.079-5.918-3.471.298-7.017.318-10.47-.07-1.4-.157-3.465-1.489-3.809-2.691-1.36-4.767-4.137-5.956-8.68-4.774-1.65.43-3.504.069-4.689.069l-6.358 7.828c.805.73 1.913 1.735 3.021 3.139.325 2.118.649 3.838.975 5.896.338 1.116.675 1.893.99 2.968-.08.691-.138 1.085-.515 1.627-.067 2.155.183 4.16.572 6.367.36.45.628.628.947 1.1.158 1.294.314 2.22.296 2.115 3.396.576 6.06 1.028 8.725 1.88.01 1.466.019 2.533-.388 3.592-7.935-1.898-16.534-.822-22.166-7.918-.071-.09-.315-.044-.486-.403-.67-1.439-1.333-2.536-1.932-3.987 2.64-3.214 2.33-5.842-.809-7.595-2.656-.146-4.961-1.055-7.337-1.71-1.249-.344-2.62-.242-4.15-.454-.475-.313-.661-.57-.77-.882m158.933-9.328-2.605-1.48c-.392.798-1.311 1.848-1.074 2.345.59 1.234 1.708 2.216 3.334 4.16.225-2.348.317-3.308.345-5.025m-12.448 4.132.326-3.284-2.233.057c.398 1.042.796 2.083 1.907 3.227z"/><path fill="#43A9F2" d="M272.982 155.044c2.92-2.739 5.841-5.478 9.332-8.553 7.517-2.363 14.398-5.836 21.422-6.155 24.952-1.133 44.05 20.893 41.229 46.465-3.002 27.199-35.57 43.897-58.943 29.873-.399-1.1-.733-1.884-.77-2.705 2.757-4.286 5.219-8.535 8.04-12.718 11.704 5.396 22.79 2.784 29.943-6.905 6.338-8.584 5.697-21.014-1.489-28.886-7.648-8.379-19.995-10.017-29.972-3.716-7.963 5.03-10.236 13.033-10.813 22.26-.974 8.449-3.314 15.864-9.286 21.965-2.936 1.916-5.444 3.9-8.082 5.692-6.763 4.597-13.867 8.346-22.36 8.345-19.742-.003-39.486-.002-59.227-.368 2.354-4.781 4.705-9.198 7.514-13.622 5.086.386 9.711.888 14.348 1.06.732.026 1.52-1.446 2.693-2.204 5.813-.271 11.222-.482 16.613-.9 2.019-.158 4-.8 6.43-1.202 5.649.276 11.037 1.489 16.042.584 9.447-1.709 14.848-8.491 18.094-17.525.461-3.987-.274-8.11.893-11.596 2.205-6.59 5.504-12.813 8.349-19.189z"/><path fill="#FBFDFB" d="M266.717 245.791c-1.923.07-3.846.14-6.253-.188-1.722-3.1-2.713-7.942-4.243-8.12-5.653-.654-11.484.233-17.688.587-2.798.016-5.157-.013-7.571-.373-1.03-.11-2.004.11-3.347.376-1.11.013-1.85-.017-2.888-.345-12.888-.417-25.477-.55-38.066-.617-.561-.003-1.125.585-2.055.946-1.107.02-1.846-.008-2.657-.387-2.4-.456-4.727-.616-7.056-.657-18.955-.338-37.91-.7-56.868-.932-3.157-.038-6.322.512-9.01.748-.412-3.343-.428-5.996-1.114-8.462-1.03-3.706.098-5.801 3.514-7.519 2.13-1.07 3.707-3.243 5.564-4.899.03.022-.039-.003.353.028 6.715-1.125 10.82-5.302 11.538-11.157.113.04-.113-.054.275-.013 6.217-2.068 4.567-7.576 6.01-12.062 2.785-1.037 5.327-1.801 8.2-2.597.757.079 1.183.19 1.736.632.37.54.625.947.857.934 7.291-.393 12.592 1.496 12.037 10.716.016 2.14-.02 3.854-.376 5.625-.105 1.024.11 1.99.375 3.326.02 1.118-.011 1.864-.408 2.702-2.033 2.572-2.858 4.959.535 7.104.398.439.644.673 1.2 1.187 14.51.41 28.711.593 42.913.659 12.966.06 25.934-.12 38.899.014 11.95.125 22.509-3.193 30.996-11.806 4.754 2.997 9.319 5.874 13.927 9.072.687.77 1.33 1.22 1.964 1.678-.01.009.009-.012.045.346 1.121 2.969 2.747 3.465 5.414 1.626 2.807.01 5.171.014 7.536.018.732 5.292 1.498 10.58 2.186 15.878.704 5.419-3.431 6.396-7.466 8.04l-1.295-4.44-3.594 1.583c-.173-.777-.432-1.257-.343-1.66.452-2.05 1.286-4.058 1.439-6.122.26-3.533-1.048-4.67-4.873-3.443-3.884 1.246-8.102 1.641-12.204 1.87-.922.051-1.968-2.135-2.983-3.32-4.37 1.192-7.234 4.447-6.13 7.984.609 2.122.792 3.781.975 5.44m16.207-17.084 3.852-1.833-1.284-1.74c-1.038 1.022-2.075 2.043-2.568 3.573z"/><path fill="#46A9EE" d="M63.958 154.004c1.228-1.165 2.456-2.33 4.181-3.796 1.602-1.276 2.707-2.252 3.812-3.227 0 0 .048.02.395-.04 7.167-2.448 11.597-6.234 9.89-14.472-.665-3.214 1.445-4.857 4.803-4.645 1.318.083 2.648-.04 3.972-.07 0 0 .084.138.087.642.003 4.033.003 7.564.003 12.117 2.431-.634 4.139-1.079 6.146-1.806.445-2.394.293-4.588.848-6.586.331-1.192 2.046-3.072 2.657-2.903 1.54.425 3.27 1.58 4.031 2.94.572 1.02-.18 2.827-.452 4.264-.871 4.602.737 6.695 6.042 7.531.213.036.634.132.812.427 1.438.698 2.698 1.102 3.914 1.555-.045.05.004-.075.014.274.715.725 1.419 1.101 2.125 1.509.003.03-.06.035.056.348.948.558 1.78.803 2.74 1.246.33.448.58.636.933 1.07.52.61.982.912 1.377 1.37-.068.154.019-.172.035.162.588.558 1.16.782 1.711 1.039-.022.032-.042-.045.05.2.373.434.656.623.9.819-.038.007.019-.047 0 .335 1.088 1.446 2.197 2.51 3.472 3.705.351.355.459.611.478 1.294.559 2.6 1.128 4.805 1.803 7.426-5.912 1.719-11.506 3.886-17.06-.435.026-.039-.067-.035 0-.39-.615-.771-1.298-1.189-1.94-1.669.04-.062-.088.015-.039-.354-.917-.842-1.883-1.316-2.808-1.78.04.01-.043.023-.044-.35-1.354-1.078-2.706-1.783-4.012-2.493.047-.006-.043-.032-.21-.387-6.553-.425-12.97-.881-19.309-.367-2.406.194-6.344.564-6.255 5.188-.443.592-.817.933-1.506 1.327-.738.71-1.161 1.368-1.595 2-.011-.025.036.002-.324.05-.77 1.073-1.18 2.099-1.662 3.496-4.88 11.864-1.31 24.08 8.635 30.17 10.56 6.464 22.732 3.953 31.236-6.154 1.146-1.362 3.487-2.39 5.283-2.402 4.467-.032 8.94.612 13.561 1.34-1.228 3.985-2.608 7.615-3.987 11.244 0 0 .226.093-.193.165-4.154 3.72-7.89 7.367-11.624 11.015 0 0 .07.025-.322.045-2.192.884-3.91 2.138-5.809 2.534-4.424.923-5.463 3.682-4.95 7.654.127.984-.058 2.005.045 2.995.34 3.287-.228 5.193-4.399 5.243-4.379.052-5.046-1.963-4.756-5.463.123-1.49.37-3.127-.11-4.455-.378-1.05-1.8-2.408-2.726-2.385-.93.024-1.997 1.476-2.662 2.52-.378.593-.072 1.622-.072 2.455-.006 7.875-.887 8.524-9.142 6.21 0-3.314.187-6.796-.091-10.239-.114-1.4-.896-3.154-1.964-4.002-6.178-4.902-12.533-9.58-18.828-14.335 0 0-.124-.373-.262-.876-5.02-8.553-7.563-17.232-6.641-26.673.846-8.674 4.58-16.238 9.707-23.17z"/><path fill="#47A8EF" d="M199.114 180.003c.081-.736.163-1.472.416-2.895.486-2.487.762-4.296 1.123-6.087 2.013-10.002 8.623-17.022 15.52-23.852 0 0 .052.059.088.076 11.54-6.824 23.672-9.492 36.731-5.241 2.137.695 4.054 2.066 5.86 3.686-2.42 5.375-4.626 10.19-7.188 14.96-16.62-7.32-32.265 1.256-34.15 18.867-.42 3.93 1.093 8.068 1.414 12.307-1.187.065-2.123.074-2.95-.222-6.394-2.285-10.851-.722-13.506 4.452-1.296-5.523-2.327-10.787-3.358-16.05z"/><path fill="#57ACCD" d="M225.025 238.025c.74.03 1.48.061 2.965.127a45.256 45.256 0 0 0 3.027-.124c2.359.03 4.718.058 7.98.123 4.54.053 8.207-.205 11.8.2 1.858.21 3.585 1.595 4.914 2.517-6.415-.248-12.373-.829-18.332-.838-49.248-.076-98.495-.084-147.742.107-1.775.007-4.954 2.166-5.073 3.531-.6 6.892-.905 13.893-.357 20.78.663 8.34 1.37 8.57 9.828 8.57 50.158.002 100.317.007 150.475-.038 2.13-.002 4.253-.561 6.39-.74 4.017-.335 5.238-2.634 5.19-6.422-.107-8.327.056-16.657.442-24.765.704 7.63 1.338 15.038 1.332 22.445-.002 3.487-1.235 6.973-1.91 10.46 0 0 .044.043-.387.064-2.895.288-5.358.782-7.822.786-27.293.046-54.586-.012-81.88.016-25.958.027-51.917.122-77.876.188A11.632 11.632 0 0 1 85.644 274a244.505 244.505 0 0 1-3.395-3.39s.053-.316.032-.924c-.092-4.308-.162-8.007-.232-11.706.034-2.36.067-4.72.125-7.935-.03-2.253-.084-3.65-.138-5.046.06-.427.12-.853.403-1.801a20.52 20.52 0 0 0 .59-2.18s-.029-.02.198-.11c.512-.286.68-.554.734-.895 0 0 .243-.208.695-.48 4.548-.615 8.643-1.235 12.742-1.258 28.207-.154 56.415-.184 84.623-.254l3.051.116c13.874-.015 26.913-.063 39.953-.112z"/><path fill="#DAF5FD" d="m286.002 219.992-13.883-8.75c-8.487 8.612-19.046 11.93-30.996 11.805-12.965-.134-25.933.046-38.899-.014-14.202-.066-28.404-.248-42.448-.712 26.426-.34 52.695-.355 78.965-.354 13.376.001 24.597-4.72 33.564-14.944 3.07 2.446 5.837 4.744 8.617 7.034.015-.008.039.006.166.32 1.75 1.08 3.374 1.847 4.998 2.613 23.31 13.708 55.877-2.99 58.879-30.19 2.822-25.57-16.277-47.597-41.229-46.464-7.024.319-13.905 3.792-21.206 5.908.912-1.624 1.93-4.536 3.486-4.86 12.067-2.512 24.587-4.748 36.277-.007 7.884 3.198 14.522 8.803 19.085 17.099 4.482 8.15 6.296 16.256 5.56 25.135-1.155 13.947-6.49 25.397-18.782 33.49-8.213 5.408-16.89 6.904-26.696 6.88-2.82-.004-5.184-.008-8.074-.38-2.14-.786-3.753-1.204-5.367-1.622 0 0-.019.021-.057-.306-.678-.779-1.319-1.23-1.96-1.68z"/><path fill="#327AA1" d="M266.817 246.137c-.283-2.005-.466-3.664-.75-5.73.953-.991 1.991-2.048 3.062-2.082 5.48-.171 10.969-.08 16.375-.08 5.46 13.838 12.017 18.383 24.641 17.319 7.531-.635 13.661-3.733 16.512-10.945 2.691-6.806 1.094-13.083-4.789-18.071l16.234-10.562c8.838 6.597 10.837 15.959 9.866 26.388-1.38 14.806-9.55 24.368-23.541 29.202.431-.964 1.078-1.81 1.929-2.163 10.225-4.24 17.167-11.63 19.034-22.497 1.776-10.336 2.133-20.884-7.484-28.887-1.675 1.173-3.177 2.51-4.912 3.385-5.382 2.712-9.522 5.697-4.154 12.076.259.307.09.97.128 1.467.955 12.24-3.122 18.3-14.868 21.425-11.265 2.997-26.118-2.639-29.39-13.534-.36-1.195-2.226-2.685-3.444-2.732-3.438-.132-6.902.425-10.357.691-2.744.212-3.013 1.618-2.542 4.101 3.444 18.167 18.165 26.161 33.648 27.903 7.15.804 14.537-.508 21.817-.86-19.06 7.537-50.633 1.356-57.015-25.814z"/><path fill="#D2F5FA" d="M181.949 237.67c-28.136.421-56.344.45-84.551.605-4.099.023-8.194.643-12.67 1.116-3.274-4.466-6.146-8.98-4.295-14.942.245-.79-1.832-2.66-3.163-3.519-6.394-4.126-13.08-7.89-16.138-15.835a366.483 366.483 0 0 1 18.85 13.963c1.068.848 1.85 2.602 1.964 4.002.278 3.443.09 6.925.09 10.24 8.256 2.313 9.137 1.664 9.143-6.21 0-.834-.306-1.863.072-2.456.665-1.044 1.732-2.496 2.662-2.52.927-.023 2.348 1.335 2.727 2.385.48 1.328.232 2.966.109 4.455-.29 3.5.377 5.515 4.756 5.463 4.17-.05 4.739-1.956 4.399-5.243-.103-.99.082-2.011-.045-2.995-.513-3.972.526-6.73 4.95-7.654 1.898-.396 3.617-1.65 5.778-2.556-1.465 1.636-3.042 3.808-5.172 4.88-3.416 1.717-4.543 3.812-3.514 7.518.686 2.466.702 5.119 1.113 8.462 2.69-.236 5.854-.786 9.011-.748 18.957.233 37.913.594 56.868.932 2.33.041 4.656.201 7.056.657zM88.182 275.341c25.766-.395 51.725-.49 77.684-.517 27.293-.028 54.586.03 81.879-.016 2.464-.004 4.927-.498 7.803-.81-3.01 3.621-7.472 2.86-11.74 2.723-2.297-.074-4.584-.7-6.876-.703a65796.76 65796.76 0 0 0-135.123.003c-2.623.002-5.246.72-7.867.71-1.857-.008-3.711-.683-5.76-1.39z"/><path fill="#2B87DE" d="M272.672 154.911c-2.535 6.509-5.834 12.732-8.04 19.322-1.166 3.486-.43 7.609-.93 11.21 1.151-10.422-3.252-18.082-10.329-24.425 1.785.352 3.202.683 4.797 1.324 1.725.857 3.273 1.404 3.945 1.642.998-3.19 1.69-5.585 2.497-7.94.971-2.832 1.905-5.575-2.612-6.414-.351-1.206-.66-2.071-.967-2.936 3.776 2.695 7.552 5.39 11.639 8.217z"/><path fill="#D2F5FA" d="M63.59 154.001c-4.76 6.935-8.493 14.499-9.34 23.173-.92 9.441 1.622 18.12 6.517 26.521-5.27-3.125-7.094-8.598-7.613-14.358-.519-5.766-1.31-11.938.17-17.34 1.787-6.512 1.975-14.604 10.267-17.996zM256.168 240.8c-1.786-.854-3.513-2.24-5.371-2.45-3.593-.404-7.26-.146-11.36-.244 5.3-.39 11.131-1.277 16.784-.622 1.53.177 2.52 5.019 3.763 8.12-.32 8.066-.526 15.739-1.065 23.388-.118 1.68-1.42 3.276-2.572 4.938.282-3.459 1.515-6.945 1.517-10.432.006-7.407-.628-14.815-1.42-22.371-.421-.149-.276-.327-.276-.327z"/><path fill="#3999EA" d="M257.993 162.032c-1.418-.33-2.835-.662-4.888-1.02-.785-.123-.935-.22-1.085-.317 2.206-4.815 4.412-9.63 6.926-14.661.822-.085 1.337.047 1.97.42.425 1.105.733 1.97.695 3.272-1.437 4.393-2.528 8.35-3.618 12.306z"/><path fill="#BCE5F4" d="m96.948 138.99-5.847 1.523c0-4.553 0-8.084.063-12.072 1.649-.433 3.233-.406 5.213.005.454 3.772.512 7.158.57 10.543zM90.94 127.424c-1.253.36-2.583.483-3.9.4-3.36-.212-5.469 1.431-4.803 4.645 1.706 8.238-2.724 12.024-9.899 14.446 1.19-1.812 2.393-4.629 4.343-5.312 4.465-1.565 4.657-4.047 3.922-8.049-.368-2.004.575-5.082 2.058-6.399 2.233-1.983 5.467-3.544 8.28.269z"/><path fill="#64A8D6" d="M97.247 138.707c-.358-3.103-.416-6.49-.557-10.332-.082-.457.06-.604.406-.635.893-.232 1.44-.434 1.988-.636.726.008 1.452.016 2.753.202 1.434.045 2.292-.087 3.15-.219.359.026.637.19.889 1.167.002 6.083-.946 11.745 4.284 15.663-5.092-.8-6.7-2.893-5.829-7.495.272-1.437 1.024-3.244.452-4.264-.762-1.36-2.49-2.515-4.03-2.94-.612-.17-2.327 1.711-2.658 2.903-.555 1.998-.403 4.192-.848 6.586z"/><path fill="#DAF5FD" d="M110.373 143.953c-5.443-3.954-4.495-9.616-4.387-15.476.701.51 2.015 1.574 1.886 2.417-.798 5.204 1.002 9.177 4.784 12.678-.741.427-1.195.47-1.649.513 0 0-.421-.096-.634-.132zM117.653 144.03c.438.32.624.576 1.236 1.184.58 1.224.81 2.042.694 2.806-1.032-.124-1.718-.195-2.404-.267 0 0 .062-.005.011-.337-.73-.74-1.408-1.148-2.087-1.556 0 0-.049.125-.033-.169.016-.294-.068-.779-.068-.779.774-.296 1.548-.592 2.65-.881z"/><path fill="#D2F5FA" d="M81.753 258.269c.366 3.41.436 7.109.467 11.268-.28-3.352-.522-7.166-.467-11.268z"/><path fill="#BCE5F4" d="M71.595 146.982c-.749.974-1.854 1.95-3.282 2.96.76-.963 1.844-1.96 3.282-2.96z"/><path fill="#D2F5FA" d="M82.179 270.998c1.06.614 2.048 1.616 3.151 2.88a13.481 13.481 0 0 1-3.151-2.88z"/><path fill="#BCE5F4" d="M104.798 126.842c-.67.377-1.527.51-2.598.455.662-.358 1.536-.53 2.598-.455z"/><path fill="#64A8D6" d="M114.715 144.879c.287.033.37.518.4.762-1.232-.16-2.492-.563-3.93-1.261.276-.338.73-.381 1.525-.461.8.284 1.259.605 2.005.96z"/><path fill="#D2F5FA" d="M81.765 245.23c.325 1.165.38 2.562.365 4.375-.257-1.104-.447-2.624-.365-4.375zM82.726 241.049c.18.521.059 1.074-.267 1.826-.148-.466-.092-1.13.267-1.826z"/><path fill="#BCE5F4" d="M98.86 126.988c-.323.318-.87.52-1.717.661.299-.3.896-.538 1.718-.661z"/><path fill="#D2F5FA" d="M83.739 240.113c.169.24 0 .509-.504.81-.164-.235.003-.506.504-.81z"/><path fill="#F8F9F9" d="M198.743 180.066c1.402 5.201 2.433 10.465 3.755 16.18.291.451.527.761.523 1.029.212.538.428.809.691 1.423.793 1.993 1.54 3.644 1.817 5.288-4.558.008-8.652-.087-12.736.07-3.651.14-7.292.56-11.214.87-.644-.007-1.013-.026-1.524-.437-.414-2.501-.915-4.61-.923-6.722-.064-17.47-.13-34.942.035-52.411.037-3.888-.715-5.675-5.143-5.502-9.304.362-18.63.173-28.224.279-.775.349-1.273.629-1.77.91l-3.02-2.74 6.357-7.829c1.185 0 3.04.36 4.689-.069 4.543-1.182 7.32.007 8.68 4.774.344 1.202 2.41 2.534 3.808 2.69 3.454.389 7 .369 10.471.071 4.545-.39 6.143 1.228 6.08 5.918-.236 17.314.035 34.634-.182 51.949-.057 4.557 1.492 6.404 5.997 6.23 4.555-.174 9.121-.038 13.682-.038l1.279-2.182-5.09-2.51c.473-.197.947-.393 1.42-.588-.315-4.08-.754-8.155-.88-12.24-.044-1.438.678-2.9 1.422-4.413z"/><path fill="#DAF5FD" d="M157.934 202.003c.606-8.793-4.695-10.682-11.986-10.289-.232.013-.486-.393-.465-1.032.918-.376 1.576-.364 2.222-.267 5.931.893 6.053.804 6.044-5.335-.007-4.607-.065-9.215.286-13.888 3.343-.493 3.656-1.961 2.012-4.199-.008-1.066-.017-2.133-.034-4-1.36-6.562-6-2.95-9.016-3.961-.317-.105-.585-.283-.867-.818-.06-.286.09-.461.534-.423 2.762.06 5.09.229 7.394.067 2.945-.206 4.154.842 4.115 3.922-.17 13.406-.174 26.815-.239 40.223z"/><path fill="#F8F9F9" d="M215.806 147.111c-6.53 6.888-13.14 13.908-15.153 23.91-.361 1.791-.637 3.6-1.156 5.717-4.666-.205-5.62-2.6-3.12-7.175 3.263-5.975 6.39-12.036 9.928-17.844 1.956-3.21 4.96-5.328 9.501-4.608zM155.632 166.986c2.059 2.245 1.746 3.713-1.776 4.126-.565-.015-.881-.246-.956-.6-.906-.703-1.718-1.284-2.572-1.356-3.11-.259-6.234-.347-9.353-.5l.008-1.319c-1.34 1.761-2.681 3.522-4.337 5.37-.75.075-1.183.063-1.679-.305-.446-1.495-.83-2.635-1.184-3.938.028-.164.153-.472.498-.521.407-1.228.719-2.462.475-3.574-.4-1.829-1.16-3.58-1.769-5.362.164.017.408-.03.48.06 5.63 7.097 14.23 6.021 22.165 7.919zM119.93 148.073a59.37 59.37 0 0 0-.829-2.747c1.18-.195 2.552-.297 3.801.047 2.376.655 4.68 1.564 7.337 1.71 3.139 1.753 3.45 4.38.472 7.554-2.497-.76-4.592-1.833-6.966-2.945-.647-.063-1.015-.088-1.382-.112 0 0-.087.326-.01-.13-.053-.847-.183-1.237-.433-1.817-.324-.423-.577-.577-.899-.64-.02.01-.006-.032-.124-.252-.404-.38-.69-.54-.956-.702.018-.002-.012.034-.012.034z"/><path fill="#D4F3FC" d="M144.03 141.44c.497-.678.995-.958 1.745-.873-.416 4.25.864 6.245 5.14 5.668 1.255-.169 2.58.187 3.889.431.016.13.19.323.222.725a91.873 91.873 0 0 1-.283 4.356c-.012.008-.028-.022-.459-.047-3.042.09-5.653.205-8.32.26-.056-.058-.165-.177-.165-.177.058-.393.116-.787.491-1.52-.217-1.314-.752-2.29-1.287-3.264-.324-1.72-.648-3.44-.973-5.558z"/><path fill="#DAF5FD" d="M124.024 151.731c2.095 1.073 4.19 2.146 6.623 3.26 1 1.138 1.664 2.235 2.333 3.674.616 2.125 1.376 3.875 1.776 5.704.244 1.112-.068 2.346-.619 3.262-2.038-3.082-3.588-5.9-5.138-8.719-.028-.289-.136-.545-.598-1.214-1.298-1.554-2.32-2.664-3.342-3.773 0 0-.057.054-.091-.21-.33-.445-.625-.626-.92-.807 0 0 .02.077.018-.252-.015-.528-.029-.726-.042-.925z"/><path fill="#F8F9F9" d="M146.999 159.399c3.015.644 7.653-2.968 9.012 3.193-2.656-.05-5.32-.502-8.716-1.078.018.105-.138-.821-.296-2.115zM276.947 135.088c-.06 1.338-.152 2.298-.377 4.646-1.626-1.944-2.744-2.926-3.334-4.16-.237-.497.682-1.547 1.074-2.346.868.494 1.737.988 2.637 1.86zM264.11 138.79c-.754-1.093-1.152-2.134-1.55-3.176l2.233-.057c-.108 1.094-.217 2.19-.682 3.233z"/><path fill="#D4F3FC" d="M145.992 158.013c-.329-1.92-.58-3.926-.512-6.081.319-.149.428-.03.487.442.123 2.107.188 3.743.252 5.379 0 0-.15.175-.227.26z"/><path fill="#F8F9F9" d="M145.005 147.337a6.7 6.7 0 0 1 1.307 2.629c-.632-.736-.97-1.513-1.307-2.629z"/><path fill="#F5FCFC" d="M251.664 160.65c.506.142.656.24 1.074.342 7.712 6.369 12.115 14.03 10.626 24.603-2.87 9.268-8.271 16.05-17.718 17.759-5.005.905-10.393-.308-16.2-.88a166.342 166.342 0 0 1-9.338-8.912c.016-.197-.125-.566-.102-.833-.234-.473-.491-.68-.739-.943.01-.056-.038-.16-.038-.16-.622-4.041-2.135-8.178-1.715-12.109 1.885-17.611 17.53-26.187 34.15-18.866z"/><path fill="#F4FAFA" d="M281.094 183.583c.444-8.806 2.717-16.81 10.68-21.839 9.977-6.301 22.324-4.663 29.972 3.716 7.186 7.872 7.827 20.302 1.49 28.886-7.154 9.69-18.24 12.301-30.243 6.755-1.984-.892-3.31-1.568-4.704-2.6-2.444-5.21-4.82-10.064-7.195-14.918z"/><path fill="#53A9E4" d="M146.664 157.79c-.51-1.673-.574-3.31-.641-5.358 2.608-.527 5.22-.642 8.117-.393-1.158.855-2.602 1.347-3.998 1.822.174.792.142 1.276.33 1.388.544.321 1.166.66 1.776.698 7.759.5 7.751.487 7.75 8.24-.004 16.595.04 33.19-.026 49.785-.015 3.896.866 6.406 5.568 6.095 4.46-.295 8.957-.063 13.816-.06 1.135 0 1.891-.002 2.648-.004 19.743 0 39.487 0 59.23.003 8.492 0 15.596-3.748 22.359-8.345 2.638-1.793 5.146-3.776 8.085-5.46.372.213.322.673.322.673-8.662 10.373-19.883 15.094-33.26 15.093-26.269-.001-52.538.013-79.272.074-.713-.181-.96-.415-1.293-1.287-.137-2.68-.185-4.72-.234-6.762.032-.747.063-1.493.121-2.984-.026-1.5-.08-2.255-.132-3.01.035-1.714.07-3.428.055-5.568.014-13.835.018-27.244.188-40.65.039-3.08-1.17-4.128-4.115-3.922-2.304.162-4.632-.007-7.394-.067z"/><path fill="#2D89E4" d="M272.305 207.023c-.305-.149-.255-.609-.259-.84 5.601-6.315 7.941-13.73 8.915-22.179a112.656 112.656 0 0 1 6.945 14.576c-3.142 5.185-6.456 9.72-6.998 15.485-2.766-2.298-5.533-4.596-8.603-7.042z"/><path fill="#298BE9" d="M220.092 193.758c2.921 2.8 5.842 5.6 8.92 8.696-1.838.718-3.82 1.36-5.838 1.517-5.391.42-10.8.63-16.64.686-.44-.238-.537-.664-.537-.664-.746-1.651-1.492-3.302-2.166-5.608.116-.872.16-1.09.518-1.286 4.9-.142 9.495-.197 14.06-.593.636-.055 1.126-1.79 1.683-2.748zM182.006 219.638c-.759.367-1.515.369-2.64-.098-.381-5.153-.393-9.837-.095-14.55.516-.056.721-.083.927-.11.368.02.737.04 1.81.076 2.821.367 4.938.717 7.055 1.067-2.352 4.417-4.703 8.834-7.057 13.615z"/><path fill="#3999EA" d="M280.922 214.057c.528-5.758 3.842-10.292 7.053-15.121 1.708.597 3.034 1.273 4.658 2.1-2.162 4.398-4.624 8.647-7.78 12.936-1.76.057-2.826.074-3.892.09 0 0-.024-.013-.039-.005z"/><path fill="#50A8E3" d="M189.52 206.016c-2.574-.343-4.69-.693-7.236-1.074 3.217-.326 6.858-.746 10.509-.886 4.084-.157 8.178-.062 12.736-.07.468.007.565.433.593.649-.734.995-1.522 2.467-2.254 2.44-4.637-.17-9.262-.673-14.348-1.06z"/><path fill="#2D89E4" d="M281.088 214.377c.939-.331 2.005-.348 3.47-.368.731.78 1.065 1.565 1.464 2.665-1.56-.45-3.183-1.216-4.934-2.297z"/><path fill="#DAF5FD" d="M133.754 168.628c.384 1.14.767 2.279.814 3.916-7.71 1.069-15.084 1.64-22.53 1.896-1.284-2.05-2.495-3.784-3.852-5.844-8.224-8.125-19.6-7.9-26.789.28-.403.245-.528.465-.824.941a22.001 22.001 0 0 0-1.67 3.154c.04.015.016-.067-.3.161-.472 4.49-.628 8.752-.813 12.974-.03-.042-.098.034-.108.346.306.798.62 1.284.93 1.793-.005.023-.04.052-.057.357a4.791 4.791 0 0 0 1.206 1.61c.114.006-.11.043-.129.35.39.745.798 1.181 1.238 1.577.03-.04-.072-.037-.01.235.353.48.646.69.909.86-.03-.037-.07.05.03.355 1.124 1.03 2.148 1.755 3.185 2.448.013-.031-.047 0 .165.29 4.924 2.983 9.79 4.287 15.4 1.895 1.707-.766 3.072-1.507 4.444-2.236.006.012-.015-.005.243-.07.455-.343.654-.62.816-.893-.037.004-.008.071.32-.002 2.014-2.386 3.697-4.7 5.598-7.239.465-.566.713-.904 1.406-1.158 3.686.244 6.928.404 10.483.792 1.572.302 2.83.377 4.464.539 1.66.139 2.944.19 4.515.463 1.225.275 2.164.327 3.47.468 1.122.135 1.875.182 2.911.444 1.457.426 2.631.638 3.805.85-2.542.764-5.084 1.528-8.255 2.57-1.145.324-1.66.37-2.176.416-4.47-.372-8.943-1.016-13.41-.984-1.796.013-4.137 1.04-5.283 2.402-8.504 10.107-20.676 12.618-31.236 6.153-9.944-6.088-13.514-18.305-8.379-30.361a167.487 167.487 0 0 0 1.766-3.352s-.047-.027.233-.118c.733-.706 1.188-1.322 1.642-1.938l1.532-1.397c8.013-6.256 16.51-6.506 25.389-4.342 0 0 .09.026.164.326 1.346 1.057 2.62 1.815 3.892 2.572 0 0 .084-.013.183.255.939.802 1.779 1.336 2.62 1.87 0 0 .128-.076.138.278.615.813 1.218 1.273 1.822 1.732 0 0 .093-.004.104.416 1.605 1.416 3.21 3.269 4.791 3.25 5.069-.06 10.13-.814 15.193-1.3z"/><path fill="#4AA6EA" d="M143.356 190.148c-1.506-.18-2.68-.392-4.111-1.192-.407-2.743-.556-4.898-.767-7.942l1.382-1.26-4.103-3.835c2.535 0 4.174.111 5.756-.14.197-.032.09-1.981.482-3.248 3.899-.692 7.44-1.178 10.98-1.665 0 0 .316.231.495.311.214 4.688.272 9.296.279 13.903.009 6.14-.113 6.228-6.044 5.335-.646-.097-1.304-.109-2.35-.063-.817-.014-1.243-.125-2-.204z"/><path fill="#D2F5FA" d="M224.727 237.728c-12.742.346-25.781.394-39.287.362.096-.394.66-.982 1.22-.98 12.59.068 25.18.201 38.067.618z"/><path fill="#D4F3FC" d="M117.332 215.977c3.343-3.679 7.078-7.327 11.119-11.085-.299 5.783-4.404 9.96-11.119 11.085zM132.744 193.522c.365-.402.88-.448 1.781-.5-.813 4.209.837 9.717-5.38 11.785.991-3.67 2.371-7.3 3.6-11.285z"/><path fill="#F8F9F9" d="M282.652 228.453c.765-1.276 1.802-2.297 2.84-3.319l1.284 1.74c-1.284.611-2.568 1.222-4.124 1.579zM288.055 222.337c1.578.06 3.192.478 4.889 1.258-2.142 2.207-3.768 1.71-4.89-1.258z"/><path fill="#DAF5FD" d="M157.576 214.083c.414 1.95.462 3.992.448 6.466-3.306-1.507-2.481-3.894-.448-6.466z"/><path fill="#D2F5FA" d="M230.962 237.697c-.706.384-1.467.437-2.603.41.599-.3 1.573-.52 2.603-.41z"/><path fill="#DAF5FD" d="M157.61 208.055c.373.698.426 1.453.401 2.582-.292-.593-.507-1.558-.402-2.582z"/><path fill="#F8F9F9" d="M286.046 220.313c.597.13 1.238.581 1.926 1.35-.596-.13-1.239-.58-1.926-1.35z"/><path fill="#64A8D6" d="M133.783 168.464c-5.093.65-10.153 1.404-15.222 1.464-1.582.019-3.186-1.834-4.817-3.212 5.543 3.902 11.137 1.735 17.05.016-.676-2.62-1.245-4.827-1.804-7.426 1.559 2.425 3.109 5.243 4.802 8.374.144.312.02.62-.01.784zM104.68 158.874c-8.713-1.81-17.209-1.559-25.152 4.446-.501-4.25 3.437-4.619 5.843-4.813 6.339-.514 12.756-.058 19.308.367zM125.04 154.307c1.04.727 2.063 1.837 3.196 3.26-.999-.75-2.108-1.814-3.197-3.26zM108.902 161.754c-1.272-.384-2.545-1.142-3.938-2.194 1.232.411 2.584 1.116 3.938 2.194zM75.69 167.072c-.118.882-.597 1.81-1.332 2.932.153-.833.563-1.86 1.333-2.932zM111.754 163.884c-.89-.166-1.73-.7-2.71-1.512.827.196 1.793.67 2.71 1.512zM113.734 165.908c-.672-.105-1.275-.565-1.93-1.316.63.126 1.314.544 1.93 1.316zM115.113 146.209c.669.06 1.348.467 2.075 1.176-.656-.075-1.36-.451-2.075-1.176zM117.294 148.066c.57-.241 1.257-.17 2.29-.046.345.053.375.017.374.25 0 .232.082.687.048.725l-.099.118c-.832-.244-1.665-.489-2.613-1.047zM77.61 165.022c-.138.562-.593 1.178-1.316 1.91.155-.542.578-1.2 1.316-1.91zM123.745 151.692c.292.238.306.436.343.931-.548.073-1.12-.151-1.71-.71.352-.309.72-.284 1.367-.221zM122.04 149.823c.13.39.26.78.38 1.473-.47-.002-.933-.305-1.393-.97.002-.361.118-.474.343-.463.224.012.67-.04.67-.04zM124.14 153.153c.203-.064.498.117.866.555-.21.068-.493-.121-.867-.555z"/><path fill="#64A8D6" d="M120.97 150.02c-.356-.072-.605-.26-.935-.708-.128-.199-.062-.278.215-.312.277-.034.765-.039.765-.039s-.014.042.025.25.105.64.105.64-.116.114-.175.169z"/><path fill="#3499F1" d="M220.108 193.562c-.573 1.154-1.063 2.889-1.699 2.944-4.565.396-9.16.451-14.312.561a14.772 14.772 0 0 0-1.072-.06s-.236-.31-.262-.502c2.364-5.625 6.82-7.188 13.214-4.903.828.296 1.764.287 2.951.222.301-.197.35-.094.348.21.136.63.372.85.707.962 0 0 .14.369.125.566z"/><path fill="#2AA9E3" d="M256.111 240.905c.035 8.256-.128 16.586-.021 24.913.048 3.788-1.173 6.087-5.19 6.423-2.137.178-4.26.737-6.39.74-50.158.044-100.317.039-150.475.037-8.459 0-9.165-.23-9.828-8.57-.548-6.887-.244-13.888.357-20.78.12-1.365 3.298-3.524 5.073-3.531 49.247-.191 98.494-.183 147.742-.107 5.959.01 11.917.59 18.332.838.457-.068.312.11.4.037m-21.651 11.393c-1.226 4.86-.145 8.191 5.523 8.855.735.086 1.322 1.444 1.977 2.214-1.039.498-2.13 1.485-3.103 1.379-1.408-.155-2.729-1.102-4.746-2.006.701 6.134 4.556 5.476 7.836 5.185 3.329-.296 4.272-2.648 3.907-5.75-.185-1.577-.453-3.246-.136-4.757.69-3.29.192-6.108-2.885-7.729-3.027-1.595-5.79-.782-8.373 2.609m-91.448 9.864 1.171 3.814 1.142-.217 1.355-4.34c5.432.776 8.653-.81 9.24-4.378.654-3.961-1.94-7.646-5.593-7.945-6.55-.537-7.29.089-7.31 6.205-.006 1.985-.003 3.97-.005 6.861m46.541-1.015c4.255-3.268 4.74-8.727.588-10.827-1.823-.923-5.661-1.024-6.573.114-1.571 1.96-2.782 5.743-1.873 7.71.843 1.825 4.658 2.277 7.858 3.003m24.402-4.83c.209 4.189 3.546 5.905 6.42 4.96 2.318-.76 4.818-4.109 5.258-6.65.549-3.182-2.35-5.454-5.749-5.49-4.02-.04-5.97 2.367-5.93 7.18m-86.583-5.83 3.64 12.881c2.483-.9 6.598-9.115 6.03-15.434l-4.08 6.46c-2.756-.75-.878-6.448-5.59-3.906m-22.73.72c-1.77-3.629-5.172-2.797-6.975-1.189-1.677 1.496-2.733 4.863-2.352 7.117.303 1.793 2.975 3.665 5.007 4.499 1.168.479 3.156-1.04 5.677-2.005-1.755-1.091-2.01-1.35-2.307-1.42-2.195-.51-5.599.744-5.584-3.174.016-4.265 3.388-2.258 5.502-2.575.277-.041.508-.392 1.032-1.252m67.047 7.325c-3.939-2.614-3.763-4.378.83-7.955l-5.337-4.668-2.492 3.68c.583 3.29.735 5.689 1.497 7.876.465 1.338 1.68 2.721 2.928 3.348.592.297 2.05-1.132 2.574-2.28m-54.74-1.975c-.233-2.407.609-3.731 3.277-3.75.777-.005 1.713-.824 2.23-1.525.183-.247-.498-1.542-1.066-1.868-3.27-1.875-8.271 1.057-8.323 4.797-.016 1.157-.204 2.363.058 3.458.27 1.125.993 2.141 1.518 3.206.767-1.156 1.533-2.31 2.305-4.318m88.026-7.67-1.26-4.544-1.726.411v15.892c1.575-.413 2.768-1.39 2.883-2.481.293-2.766.103-5.582.103-9.279z"/><path fill="#0A72B8" d="M323.883 271.98c-7.33.323-14.719 1.635-21.868.83-15.483-1.74-30.204-9.735-33.648-27.902-.471-2.483-.202-3.889 2.542-4.1 3.455-.267 6.919-.824 10.357-.692 1.218.047 3.085 1.537 3.444 2.732 3.272 10.895 18.125 16.531 29.39 13.534 11.746-3.125 15.823-9.185 14.868-21.425-.039-.497.13-1.16-.128-1.467-5.368-6.38-1.228-9.364 4.154-12.076 1.735-.875 3.237-2.212 4.912-3.385 9.617 8.003 9.26 18.551 7.484 28.887-1.867 10.867-8.81 18.257-19.034 22.497-.851.353-1.498 1.199-2.298 2.157-.06.34-.124.438-.175.41z"/><path fill="#2A92EF" d="M258.17 162.342c.913-4.266 2.004-8.223 3.484-12.275 4.863.402 3.93 3.145 2.958 5.978-.807 2.354-1.5 4.749-2.497 7.939-.672-.238-2.22-.785-3.945-1.642z"/><path fill="#53A9E4" d="M180.055 204.49c-.063.417-.268.444-1.17.391-1.092-1.755-1.821-3.428-1.83-5.105-.083-16.969-.177-33.94.04-50.907.056-4.365-.83-6.351-5.707-6.003-4.076.291-8.225-.56-12.349-.796-2.195-.126-4.404-.022-7.494-.022 1.59 2.2 2.416 3.345 3.242 4.49-1.292-.116-2.617-.472-3.872-.303-4.276.577-5.556-1.419-4.862-5.737 9.341-.471 18.667-.282 27.971-.644 4.428-.173 5.18 1.614 5.143 5.502-.166 17.47-.1 34.94-.035 52.411.008 2.112.509 4.22.923 6.722z"/><path fill="#47A8EF" d="M203.021 197.275c.173-.266.342-.264.762-.23.208.25.164.468.001.997-.335.042-.55-.229-.763-.767z"/><path fill="#3E9CE9" d="M141.636 172.737c-.034 1.06.074 3.01-.123 3.042-1.582.251-3.22.14-5.756.14l4.103 3.836-1.382 1.259c.21 3.044.36 5.199.483 7.728-.778.326-1.531.28-2.918-.09-1.587-.368-2.54-.412-3.492-.456-1.284-.051-2.567-.102-4.505-.495-1.937-.4-3.22-.457-4.501-.514-3.241-.16-6.483-.319-10.158-.817-.409-.679-.384-1.019.075-1.361 2.728.134 5.05.53 7.302.286.973-.105 2.225-1.38 2.601-2.4.624-1.692.642-3.606.975-5.828-3.493 0-6.928 0-10.53-.255-.679-.856-1.189-1.457-1.7-2.058 7.374-.57 14.748-1.141 22.52-1.854.833-.13 1.267-.118 2.4-.101 2.003-.018 3.305-.04 4.606-.062z"/><path fill="#DAF5FD" d="M141.995 172.531c-1.66.228-2.962.25-4.649.18.956-1.852 2.296-3.613 3.637-5.374l-.008 1.32c3.119.152 6.243.24 9.353.5.854.07 1.666.652 2.572 1.355-3.466.84-7.006 1.327-10.905 2.02zM121.37 149.863c-.225-.011-.291-.444-.31-.662.283-.145.536.009.86.432.12.19-.326.242-.55.23zM120.897 148.741c.118.22-.37.225-.613.22-.244-.004-.327-.46-.344-.69.268-.07.553.09.957.47z"/><path fill="#43A9F2" d="M154.804 146.666c-.843-1.273-1.67-2.417-3.259-4.618 3.09 0 5.299-.104 7.494.022 4.124.237 8.273 1.087 12.349.796 4.876-.348 5.763 1.638 5.707 6.003-.217 16.967-.123 33.938-.04 50.907.009 1.677.738 3.35 1.52 5.134.398 4.793.41 9.477.412 14.628-4.49.466-8.986.234-13.447.53-4.702.31-5.583-2.2-5.568-6.096.066-16.595.022-33.19.026-49.785.001-7.753.009-7.74-7.75-8.24-.61-.039-1.232-.377-1.775-.698-.189-.112-.157-.596-.331-1.388 1.396-.475 2.84-.967 4.43-1.798.143-.338.16-.308.533-.258 1.542-.816 2.71-1.683 4.625-3.102l-4.736-1.714s-.174-.193-.19-.323z"/><path fill="#53A9E4" d="M155.026 147.391c1.178.036 2.388.474 4.704 1.312-1.915 1.42-3.083 2.286-4.614 3.094-.26-1.373-.16-2.688-.09-4.406z"/><path fill="#47A8EF" d="M220.006 192.73c-.358.154-.594-.065-.74-.64.249-.041.506.166.74.64z"/><path fill="#2887E6" d="M112.038 174.44c.583.915 1.093 1.516 1.606 2.682-.204 3.007-.41 5.448-.616 7.89-.025.34-.05.68-.086 1.273-.26.593-.507.931-1.3 1.54-2.23 2.603-3.915 4.936-5.598 7.27 0 0-.029-.068-.232.018a5.472 5.472 0 0 0-.834.868s.021.017-.379.003c-1.45.007-2.499.029-3.742-.201-3.8-3.495-3.457-7.214-1.227-10.933 1.977-3.298 1.307-5.517-2.117-7.115-.797-.372-1.454-1.045-2.664-1.941l4.653-1.462c-1.618-3.365-3.065-6.378-4.302-9.566 1.435.254 2.659.684 3.717 1.258-.063.354.04.564.142.773.327-.272.654-.543 1.346-.78 2.886.992 5.407 1.948 7.928 2.903 1.21 1.736 2.421 3.47 3.705 5.52z"/><path fill="#1B75E4" d="M80.847 169.62c.022-.279.147-.499.924-.702 1.743-.355 2.936-.67 4.407-.76 1.712 5.722 5.19-.352 8.095 2.041-1.185 1.182-2.217 2.318-3.364 3.322-1.204 1.054-3.602 1.973-3.61 2.965-.05 6.51.405 13.022.313 19.526-1.147.003-1.911.014-2.675.025 0 0 .06-.031.032-.36-1.109-1.017-2.19-1.705-3.27-2.392 0 0 .04-.088.023-.331-.32-.447-.622-.65-.924-.852 0 0 .103-.004.103-.299-.416-.712-.834-1.13-1.25-1.548 0 0 .224-.037.213-.375-.439-.752-.866-1.168-1.292-1.583 0 0 .035-.03.147-.38-.268-.825-.648-1.3-1.027-1.777 0 0 .068-.076.162-.497.418-4.527.741-8.633 1.065-12.739 0 0 .024.082.32-.057.733-1.168 1.17-2.198 1.608-3.227z"/><path fill="#3C80C1" d="M85.9 167.934c-1.193.315-2.386.63-3.953.902 6.638-8.14 18.015-8.365 26.239-.24-2.374-.631-4.895-1.587-8.021-2.598-.606-.054-1.082-.118-1.082-.118-1.224-.43-2.448-.86-4.292-1.104-3.377 1.177-6.134 2.168-8.891 3.158z"/><path fill="#3573C0" d="M85.149 196.326c.552-.3 1.316-.31 2.679-.066 1.45.42 2.303.584 3.268.952.312.463.572.621 1.307.7 1.795.004 3.176-.012 4.932.01 1.126.035 1.877.031 2.69.102l.183.222c-5.27 2.368-10.135 1.064-15.06-1.92zM106.373 195.021c1.354-2.26 3.038-4.593 5.051-6.97-1.355 2.27-3.038 4.584-5.051 6.97zM78.602 173.132c-.007 3.878-.33 7.984-.718 12.552.091-3.8.247-8.062.718-12.552zM101.05 196.034c1.05-.021 2.1-.043 3.543-.062-.972.743-2.337 1.484-4.044 2.25-.341.024-.463-.124-.405-.446.333-.796.608-1.27.88-1.752-.002-.008.027.01.027.01zM81.799 193.59c.98.382 2.061 1.07 3.157 2.118-1.01-.364-2.033-1.09-3.157-2.119zM80.572 169.817c-.162.832-.6 1.862-1.373 3.015.142-.857.62-1.837 1.373-3.015z"/><path fill="#4AA6EA" d="M123.86 187.416c.967-.172 2.249-.115 3.809.197-.98.18-2.238.105-3.81-.197zM132.838 188.418c.665-.178 1.618-.134 2.836.145-.672.182-1.61.13-2.836-.145z"/><path fill="#3573C0" d="M79.632 190.563c.435.11.853.528 1.238 1.281-.44-.1-.848-.537-1.238-1.281zM77.682 186.452c.39.164.769.64 1.042 1.443-.421-.159-.736-.645-1.042-1.443zM78.555 188.602c.443.11.87.526 1.195 1.273-.472-.101-.842-.535-1.195-1.273zM80.86 192.374c.24-.07.543.133.892.617-.246.072-.539-.136-.893-.617zM105.236 195.915c-.048-.195.163-.455.612-.806.042.187-.157.464-.612.806z"/><path fill="#057CBD" d="M234.687 251.968c2.356-3.061 5.12-3.874 8.146-2.279 3.077 1.621 3.575 4.438 2.885 7.729-.317 1.511-.049 3.18.136 4.756.365 3.103-.578 5.455-3.907 5.751-3.28.291-7.135.949-7.836-5.185 2.017.904 3.338 1.85 4.746 2.006.972.106 2.064-.88 3.103-1.38-.655-.769-1.242-2.127-1.977-2.213-5.668-.664-6.75-3.995-5.296-9.185m7.145.63c-2.437-1.075-4.511-.758-4.577 2.236-.022 1.013 1.89 2.963 2.876 2.935 2.988-.083 3.264-2.192 1.7-5.172zM143.012 261.709c.002-2.438 0-4.423.006-6.408.02-6.116.758-6.742 7.309-6.205 3.653.299 6.247 3.984 5.594 7.945-.588 3.569-3.81 5.154-9.241 4.378l-1.355 4.34-1.142.217c-.39-1.271-.78-2.543-1.17-4.267m3.273-5.498c1.562.718 3.079 1.68 4.717 1.982.403.074 1.892-2.196 1.653-3.04-.33-1.168-2.19-2.996-2.75-2.79-1.432.525-2.507 2.022-3.62 3.848z"/><path fill="#047BBA" d="M189.206 261.312c-2.853-.891-6.668-1.343-7.51-3.167-.91-1.968.3-5.75 1.872-7.711.912-1.138 4.75-1.037 6.573-.114 4.153 2.1 3.667 7.56-.935 10.992m-1.873-9.217c-1.106 1.276-2.453 2.43-3.187 3.893-.253.505.95 2.472 1.611 2.538 1.083.109 3.185-.713 3.234-1.282.139-1.63-.537-3.329-1.658-5.15zM213.948 255.91c-.033-4.406 1.917-6.814 5.936-6.772 3.4.035 6.298 2.307 5.749 5.488-.44 2.542-2.94 5.89-5.258 6.652-2.874.944-6.211-.772-6.427-5.368m6.19-3.7c-1.053 1.128-2.5 2.108-3.001 3.444-.264.704.955 2.673 1.81 2.895.917.239 3.115-.868 3.135-1.445.053-1.518-.773-3.066-1.943-4.894z"/><path fill="#077EBD" d="M127.404 250.143c4.679-2.197 2.8 3.5 5.557 4.25l4.08-6.46c.568 6.32-3.547 14.535-6.03 15.435-1.21-4.281-2.425-8.58-3.607-13.225zM104.505 251.535c-.388.534-.619.885-.896.926-2.114.317-5.486-1.69-5.502 2.575-.015 3.918 3.389 2.663 5.584 3.175.298.07.552.328 2.307 1.42-2.521.964-4.509 2.483-5.677 2.004-2.032-.834-4.704-2.706-5.007-4.499-.381-2.254.675-5.62 2.352-7.117 1.803-1.608 5.206-2.44 6.84 1.516z"/><path fill="#047BBA" d="M171.958 258.786c-.795.897-2.252 2.326-2.844 2.029-1.248-.627-2.463-2.01-2.928-3.348-.762-2.187-.914-4.586-1.497-7.876l2.492-3.68 5.336 4.668c-4.592 3.577-4.768 5.34-.559 8.207z"/><path fill="#077EBD" d="M116.944 256.986c-.769 1.581-1.535 2.736-2.302 3.892-.525-1.065-1.248-2.081-1.518-3.206-.262-1.095-.074-2.301-.058-3.458.052-3.74 5.053-6.672 8.323-4.797.568.326 1.25 1.62 1.066 1.868-.517.701-1.453 1.52-2.23 1.525-2.668.019-3.51 1.343-3.28 4.176zM204.975 249.34c-.002 3.246.188 6.062-.105 8.828-.115 1.09-1.308 2.068-2.883 2.48v-15.89l1.727-.412c.42 1.515.84 3.029 1.26 4.993z"/><path fill="#2A92EF" d="M113.462 185.009c-.228-2.439-.022-4.88.35-7.632 3.6-.31 7.035-.31 10.528-.31-.333 2.222-.351 4.136-.975 5.827-.376 1.02-1.628 2.296-2.6 2.401-2.253.245-4.575-.152-7.303-.286z"/><path fill="#197EEF" d="M96.96 197.884c-1.381.016-2.762.032-4.672-.17-.737-.464-.995-.626-1.305-.706-.852-.164-1.705-.328-2.773-.74-.506-6.76-.962-13.273-.911-19.782.008-.992 2.406-1.91 3.61-2.965 1.147-1.004 2.179-2.14 3.364-3.322-2.906-2.393-6.383 3.681-8.095-2.042 2.479-1.213 5.236-2.204 8.402-3.205 1.857 3.002 3.304 6.015 4.922 9.38l-4.653 1.462c1.21.896 1.867 1.569 2.664 1.941 3.424 1.598 4.094 3.817 2.117 7.115-2.23 3.72-2.574 7.438 1.227 10.933.194.251.165.233-.205.23-1.478.621-2.585 1.246-3.692 1.87zM98.917 166.024c.166-.144.642-.08.883-.061-.087.29-.414.562-.741.834-.103-.21-.205-.42-.142-.773z"/><path fill="#2887E6" d="M97.335 197.922c.732-.663 1.839-1.288 3.32-1.902.097.485-.178.96-.572 1.682-.87.251-1.622.255-2.748.22z"/><path fill="#1B75E4" d="M91.096 197.212c.197-.124.455.038.778.48-.206.141-.466-.017-.778-.48z"/><path fill="#299FE3" d="M242.11 252.876c1.285 2.7 1.009 4.81-1.979 4.893-.985.028-2.898-1.922-2.876-2.935.066-2.994 2.14-3.311 4.856-1.958zM146.234 255.852c1.165-1.467 2.24-2.964 3.671-3.49.561-.205 2.42 1.623 2.75 2.79.24.845-1.249 3.115-1.652 3.04-1.638-.302-3.155-1.263-4.769-2.34zM187.716 252.17c.738 1.745 1.414 3.445 1.275 5.074-.049.569-2.151 1.39-3.234 1.282-.661-.066-1.864-2.033-1.611-2.538.734-1.462 2.08-2.617 3.57-3.819zM220.486 252.356c.823 1.682 1.65 3.23 1.596 4.748-.02.577-2.218 1.684-3.136 1.445-.854-.222-2.073-2.191-1.809-2.895.501-1.336 1.948-2.316 3.35-3.298z"/></svg>