<svg width="563" height="179" viewBox="0 0 563 179" fill="none" xmlns="http://www.w3.org/2000/svg">
<g clip-path="url(#clip0_6_110)">
<rect width="563" height="179" fill="none"/>
<path d="M357.4 179V47.7H356.1L309.82 179H267.7L221.42 47.7H220.12V179H183.72V0.639987H248.46L290.06 118.42H291.1L332.7 0.639987H397.44V179H357.4ZM510.487 0.639987C518.981 0.639987 526.781 2.63332 533.887 6.61999C540.994 10.4333 546.627 15.72 550.787 22.48C555.121 29.0667 557.287 36.3467 557.287 44.32C557.287 56.4533 554.427 65.8133 548.707 72.4C542.987 78.9867 535.707 83.4933 526.867 85.92V87.22C536.401 89.1267 544.547 93.5467 551.307 100.48C558.067 107.413 561.447 117.727 561.447 131.42C561.447 140.087 559.194 148.06 554.687 155.34C550.354 162.62 544.374 168.427 536.747 172.76C529.294 176.92 521.061 179 512.047 179H422.087V0.639987H510.487ZM499.047 72.92C504.247 72.92 508.841 70.9267 512.827 66.94C516.814 62.9533 518.807 57.9267 518.807 51.86C518.807 44.58 516.814 39.38 512.827 36.26C508.841 32.9667 504.247 31.32 499.047 31.32H460.047V72.92H499.047ZM501.907 146.76C507.627 146.76 512.481 144.767 516.467 140.78C520.454 136.793 522.447 131.94 522.447 126.22V123.88C522.447 118.16 520.454 113.307 516.467 109.32C512.481 105.333 507.627 103.34 501.907 103.34H460.047V146.76H501.907Z" fill="url(#paint0_linear_6_110)"/>
<path d="M42 91H62H82L43 179H3L42 91Z" fill="#F26BDC"/>
<path fill-rule="evenodd" clip-rule="evenodd" d="M62 44.75L81.5 89.5L120.5 179H160.5L121.5 89.5L82.5 0L62 44.75Z" fill="#F26BDC"/>
</g>
<defs>
<linearGradient id="paint0_linear_6_110" x1="561.823" y1="110" x2="175.028" y2="110" gradientUnits="userSpaceOnUse">
<stop stop-color="#8985F2"/>
<stop offset="1" stop-color="#F26BDC"/>
</linearGradient>
<clipPath id="clip0_6_110">
<rect width="563" height="179" fill="white"/>
</clipPath>
</defs>
</svg>
