<svg width="24" height="24" viewBox="0 0 24 24" fill="none" xmlns="http://www.w3.org/2000/svg">
<path d="M6.9895 17.2397C9.8832 17.2397 12.229 14.8939 12.229 12.0002C12.229 9.10655 9.8832 6.76074 6.9895 6.76074C4.0958 6.76074 1.75 9.10655 1.75 12.0002C1.75 14.8939 4.0958 17.2397 6.9895 17.2397Z" stroke="white" stroke-width="1.5" stroke-linecap="round" stroke-linejoin="round"/>
<path d="M16.1589 17.2397C17.5214 17.2397 18.6259 14.8939 18.6259 12.0002C18.6259 9.10655 17.5214 6.76074 16.1589 6.76074C14.7964 6.76074 13.6919 9.10655 13.6919 12.0002C13.6919 14.8939 14.7964 17.2397 16.1589 17.2397Z" stroke="white" stroke-width="1.5" stroke-linecap="round" stroke-linejoin="round"/>
<path d="M21.1696 17.2397C21.7664 17.2397 22.2501 14.8939 22.2501 12.0002C22.2501 9.10655 21.7664 6.76074 21.1696 6.76074C20.5729 6.76074 20.0891 9.10655 20.0891 12.0002C20.0891 14.8939 20.5729 17.2397 21.1696 17.2397Z" stroke="white" stroke-width="1.5" stroke-linecap="round" stroke-linejoin="round"/>
</svg>
