<svg width="48" height="40" viewBox="0 0 48 40" fill="none" xmlns="http://www.w3.org/2000/svg">
<g clip-path="url(#clip0_76_260)">
<path d="M15.6 0.714355C24.2175 0.714355 31.2 6.65074 31.2 13.9733C31.2 21.2958 24.2175 27.2322 15.6 27.2322C14.1975 27.2322 12.84 27.0589 11.5425 26.7651C9.2475 28.1965 5.93475 29.6429 1.87125 29.6429C1.12275 29.6429 0.44475 29.1985 0.15135 28.5054C-0.1422 27.8123 -0.000554987 27.0137 0.505425 26.4713C0.5445 26.4412 2.2035 24.6256 3.42975 22.2526C1.2885 19.985 0 17.1072 0 13.9733C0 6.65074 6.98475 0.714355 15.6 0.714355ZM12.345 23.1717C13.44 23.4881 14.535 23.6161 15.6 23.6161C22.215 23.6161 27.6 19.2919 27.6 13.9733C27.6 8.65465 22.215 4.33043 15.6 4.33043C8.985 4.33043 3.6 8.65465 3.6 13.9733C3.6 16.6251 4.92825 18.5838 6.04275 19.7665L7.8075 21.6424L6.62325 23.925C6.3555 24.377 6.05475 24.9646 5.74125 25.4618C7.0695 25.0776 8.3775 24.4825 9.6525 23.6237L10.905 22.908L12.345 23.1717ZM33.12 10.3723C41.4 10.6887 48 16.497 48 23.6161C48 26.7501 46.71 29.6279 44.5725 31.8954C45.795 34.2685 47.4525 36.0841 47.4975 36.1142C48 36.6566 48.1425 37.4551 47.7825 38.1482C47.5575 38.8413 46.875 39.2858 46.125 39.2858C42.0675 39.2858 38.7525 37.8394 36.4575 36.408C35.16 36.7018 33.8025 36.8751 32.4 36.8751C26.25 36.8751 20.9325 33.8466 18.39 29.4546C19.6875 29.2813 20.9325 28.9875 22.1175 28.5807C24.2175 31.3832 28.0425 33.259 32.4 33.259C33.465 33.259 34.56 33.1309 35.655 32.8145L37.095 32.5509L38.3475 33.2665C39.6225 34.1254 40.9275 34.7205 42.2625 35.1047C41.9475 34.6075 41.6475 34.0199 41.3775 33.5679L40.1925 31.2852L41.955 29.4094C43.0725 28.2342 44.4 26.2679 44.4 23.6161C44.4 18.6214 39.6525 14.5082 33.5325 14.0185L33.6 13.9733C33.6 12.7303 33.435 11.5249 33.12 10.3723Z" fill="white"/>
</g>
<defs>
<clipPath id="clip0_76_260">
<rect width="48" height="38.5714" fill="white" transform="translate(0 0.714355)"/>
</clipPath>
</defs>
</svg>
