<svg width="48" height="48" viewBox="0 0 48 48" fill="none" xmlns="http://www.w3.org/2000/svg">
<path d="M21 32.919C19.96 32.8036 18.937 32.567 17.952 32.214C17.982 31.506 18 30.768 18 30V28.989C18.93 29.433 19.941 29.742 21 29.895V22.5C21 21.3065 21.4741 20.1619 22.318 19.318C23.1619 18.4741 24.3065 18 25.5 18H32.895C32.6558 16.3377 32.0212 14.757 31.0447 13.3906C30.0682 12.0242 28.7782 10.912 27.2829 10.1473C25.7876 9.38259 24.1307 8.98774 22.4513 8.99587C20.7718 9.004 19.1188 9.41487 17.631 10.194C17.3937 9.21279 17.0029 8.27524 16.473 7.41599C18.4178 6.44527 20.5683 5.9585 22.7415 5.99706C24.9148 6.03562 27.0466 6.59837 28.9558 7.63748C30.8649 8.67658 32.4949 10.1613 33.7072 11.9654C34.9195 13.7696 35.6783 15.8398 35.919 18H40.5C41.6935 18 42.8381 18.4741 43.682 19.318C44.5259 20.1619 45 21.3065 45 22.5V37.5C45 38.6935 44.5259 39.8381 43.682 40.682C42.8381 41.5259 41.6935 42 40.5 42H25.5C24.3065 42 23.1619 41.5259 22.318 40.682C21.4741 39.8381 21 38.6935 21 37.5V32.919ZM35.919 21C35.5781 24.0438 34.2128 26.8813 32.0471 29.0471C29.8813 31.2128 27.0438 32.5781 24 32.919V37.5C24 37.8978 24.158 38.2794 24.4393 38.5607C24.7206 38.842 25.1022 39 25.5 39H40.5C40.8978 39 41.2794 38.842 41.5607 38.5607C41.842 38.2794 42 37.8978 42 37.5V22.5C42 22.1022 41.842 21.7206 41.5607 21.4393C41.2794 21.158 40.8978 21 40.5 21H35.919ZM32.895 21H25.5C25.1022 21 24.7206 21.158 24.4393 21.4393C24.158 21.7206 24 22.1022 24 22.5V29.895C26.2439 29.5707 28.3227 28.5291 29.9259 26.9259C31.5291 25.3227 32.5707 23.2439 32.895 21ZM14.385 22.683C14.07 21.525 13.56 20.364 12.684 19.473C14.1 18.132 15 15.996 15 13.5C15 11.409 14.577 9.97199 13.812 8.82299C13.4726 8.32881 13.0802 7.87312 12.642 7.46399C12.474 7.30184 12.304 7.14183 12.132 6.98399C11.949 6.813 11.781 6.65699 11.562 6.43799C11.112 5.98799 11.061 5.628 11.061 5.43899C11.0615 5.33394 11.0787 5.22964 11.112 5.13C11.2492 4.83337 11.2857 4.50007 11.2161 4.18078C11.1464 3.86148 10.9744 3.57367 10.7262 3.3611C10.478 3.14854 10.1671 3.02285 9.84091 3.00315C9.51471 2.98346 9.19099 3.07084 8.919 3.25199L8.913 3.255L8.904 3.261L8.877 3.279L8.787 3.339C8.337 3.65997 7.90345 4.0034 7.488 4.36799C6.738 5.03099 5.76 6.012 5.067 7.18199C4.46205 8.15198 3.97653 9.19152 3.621 10.278C3.261 11.355 3 12.522 3 13.5C3 15.996 3.9 18.129 5.316 19.476C4.44 20.364 3.93 21.525 3.615 22.686C3 24.942 3 27.732 3 29.889V30C3 36.174 4.155 39.84 5.463 42.021C6.12 43.113 6.804 43.818 7.377 44.262C7.68232 44.5001 8.0146 44.7015 8.367 44.862C8.57079 44.9364 8.78373 44.9828 9 45C9.252 45 9.633 44.862 9.633 44.862C9.9854 44.7015 10.3177 44.5001 10.623 44.262C11.193 43.818 11.883 43.113 12.537 42.021C13.845 39.843 15 36.174 15 30V29.892C15 27.732 15 24.945 14.385 22.683ZM7.461 21.573C7.8 21.231 8.253 21 9 21C9.75 21 10.2 21.234 10.539 21.57C10.917 21.951 11.244 22.569 11.49 23.472C11.988 25.305 12 27.711 12 30C12 35.826 10.905 38.91 9.963 40.479C9.603 41.079 9.264 41.466 9 41.709C8.6228 41.3463 8.2986 40.9322 8.037 40.479C7.095 38.907 6 35.826 6 30C6 27.711 6.012 25.305 6.51 23.472C6.756 22.572 7.083 21.951 7.461 21.57V21.573ZM9 18C7.845 18 6 16.716 6 13.5C6 12.981 6.156 12.159 6.468 11.229C6.75232 10.351 7.1443 9.51161 7.635 8.73C7.896 8.289 8.235 7.85999 8.601 7.467C8.808 7.83299 9.081 8.202 9.441 8.562C9.66 8.781 9.945 9.045 10.188 9.273L10.56 9.621C10.875 9.927 11.118 10.194 11.313 10.491C11.673 11.028 12 11.841 12 13.5C12 16.716 10.155 18 9 18Z" fill="white"/>
</svg>
