<svg width="48" height="48" viewBox="0 0 48 48" fill="none" xmlns="http://www.w3.org/2000/svg">
<path d="M24 6C33.9411 6 42 14.0589 42 24C42 33.9411 33.9411 42 24 42C14.0589 42 6 33.9411 6 24C6 14.0589 14.0589 6 24 6ZM24 9C15.7157 9 9 15.7157 9 24C9 32.2842 15.7157 39 24 39C32.2842 39 39 32.2842 39 24C39 15.7157 32.2842 9 24 9ZM29.5906 28.9996C30.1431 28.3823 31.0914 28.3298 31.7088 28.8823C32.3259 29.4348 32.3784 30.3831 31.8261 31.0005C29.9055 33.1461 27.1099 34.5 24 34.5C20.8901 34.5 18.0944 33.1461 16.174 31.0005C15.6215 30.3831 15.674 29.4348 16.2913 28.8823C16.9086 28.3298 17.8569 28.3823 18.4094 28.9996C19.7848 30.5364 21.7789 31.5 24 31.5C26.2211 31.5 28.2152 30.5364 29.5906 28.9996ZM18.75 18.75C19.9926 18.75 21 19.7574 21 21C21 22.2426 19.9926 23.25 18.75 23.25C17.5074 23.25 16.5 22.2426 16.5 21C16.5 19.7574 17.5074 18.75 18.75 18.75ZM29.25 18.75C30.4926 18.75 31.5 19.7574 31.5 21C31.5 22.2426 30.4926 23.25 29.25 23.25C28.0074 23.25 27 22.2426 27 21C27 19.7574 28.0074 18.75 29.25 18.75Z" fill="white"/>
</svg>
