<svg width="48" height="48" viewBox="0 0 48 48" fill="none" xmlns="http://www.w3.org/2000/svg">
<path d="M24 22.0001C24 29.0341 21.982 35.5981 18.494 41.1421M11.614 37.0621L11.722 36.8821C14.527 32.4259 16.0105 27.2655 16 22.0001C16 19.8783 16.8429 17.8435 18.3431 16.3432C19.8434 14.8429 21.8783 14.0001 24 14.0001C26.1217 14.0001 28.1566 14.8429 29.6569 16.3432C31.1571 17.8435 32 19.8783 32 22.0001C32 24.0341 31.86 26.0381 31.594 28.0001M27.358 41.6881C28.5925 39.225 29.5916 36.6509 30.342 34.0001M38.02 36.2641C39.31 31.7321 40 26.9461 40 22.0001C40.0006 19.1912 39.2618 16.4316 37.8578 13.9988C36.4537 11.566 34.434 9.54567 32.0016 8.14095C29.5691 6.73623 26.8098 5.99662 24.0009 5.99646C21.192 5.9963 18.4326 6.73561 16 8.14005M6 30.7281C7.28 28.0901 8 25.1281 8 22.0001C8 19.0861 8.78 16.3541 10.14 14.0001" stroke="white" stroke-width="4" stroke-linecap="round" stroke-linejoin="round"/>
</svg>
