<svg width="18" height="14" viewBox="0 0 18 14" fill="none" xmlns="http://www.w3.org/2000/svg">
<path d="M9.00764 7.49456C9.33158 7.49456 9.61785 7.34389 9.95686 7.00488L16.5261 0.488421C16.2322 0.224749 15.7124 0.0966797 14.9817 0.0966797H2.83018C2.1823 0.0966797 1.72276 0.217215 1.45909 0.458287L8.05842 7.00488C8.38989 7.34389 8.6837 7.49456 9.00764 7.49456ZM0.735875 12.0523L6.15245 6.68848L0.743408 1.34724C0.607806 1.58831 0.532471 1.98758 0.532471 2.55259V10.8771C0.532471 11.427 0.600272 11.8188 0.735875 12.0523ZM17.2643 12.0448C17.3924 11.8112 17.4602 11.4195 17.4602 10.8771V2.55259C17.4602 2.00265 17.3849 1.60338 17.2493 1.36984L11.8628 6.68848L17.2643 12.0448ZM3.01099 13.333H15.1625C15.8254 13.333 16.2925 13.2049 16.5637 12.9563L11.0492 7.47949L10.5821 7.93903C10.0623 8.44378 9.56512 8.68485 9.00764 8.68485C8.45016 8.68485 7.94542 8.44378 7.42561 7.93903L6.95853 7.47949L1.45156 12.9413C1.75289 13.1974 2.28024 13.333 3.01099 13.333Z" fill="white"/>
</svg>
