<svg width="48" height="48" viewBox="0 0 48 48" fill="none" xmlns="http://www.w3.org/2000/svg">
<path d="M20 24C17.8 24 15.9167 23.2167 14.35 21.65C12.7833 20.0833 12 18.2 12 16C12 13.8 12.7833 11.9167 14.35 10.35C15.9167 8.78333 17.8 8 20 8C22.2 8 24.0833 8.78333 25.65 10.35C27.2167 11.9167 28 13.8 28 16C28 18.2 27.2167 20.0833 25.65 21.65C24.0833 23.2167 22.2 24 20 24ZM6 40C5.43333 40 4.95867 39.808 4.576 39.424C4.192 39.0413 4 38.5667 4 38V34.4C4 33.3 4.28333 32.2667 4.85 31.3C5.41667 30.3333 6.2 29.6 7.2 29.1C8.9 28.2333 10.8167 27.5 12.95 26.9C15.0833 26.3 17.4333 26 20 26H20.7C20.9 26 21.1 26.0333 21.3 26.1C21.0333 26.7 20.808 27.3253 20.624 27.976C20.4413 28.6253 20.3 29.3 20.2 30H20C17.6333 30 15.508 30.3 13.624 30.9C11.7413 31.5 10.2 32.1 9 32.7C8.7 32.8667 8.45867 33.1 8.276 33.4C8.092 33.7 8 34.0333 8 34.4V36H20.6C20.8 36.7 21.0667 37.392 21.4 38.076C21.7333 38.7587 22.1 39.4 22.5 40H6ZM20 20C21.1 20 22.042 19.608 22.826 18.824C23.6087 18.0413 24 17.1 24 16C24 14.9 23.6087 13.9587 22.826 13.176C22.042 12.392 21.1 12 20 12C18.9 12 17.9587 12.392 17.176 13.176C16.392 13.9587 16 14.9 16 16C16 17.1 16.392 18.0413 17.176 18.824C17.9587 19.608 18.9 20 20 20ZM34 36C35.1 36 36.042 35.6087 36.826 34.826C37.6087 34.042 38 33.1 38 32C38 30.9 37.6087 29.958 36.826 29.174C36.042 28.3913 35.1 28 34 28C32.9 28 31.9587 28.3913 31.176 29.174C30.392 29.958 30 30.9 30 32C30 33.1 30.392 34.042 31.176 34.826C31.9587 35.6087 32.9 36 34 36ZM31.4 39C31 38.8333 30.6247 38.6587 30.274 38.476C29.9247 38.292 29.5667 38.0667 29.2 37.8L27.05 38.45C26.8167 38.5167 26.6 38.508 26.4 38.424C26.2 38.3413 26.0333 38.2 25.9 38L24.7 36C24.5667 35.8 24.5253 35.5833 24.576 35.35C24.6253 35.1167 24.75 34.9167 24.95 34.75L26.6 33.3C26.5333 32.8333 26.5 32.4 26.5 32C26.5 31.6 26.5333 31.1667 26.6 30.7L24.95 29.25C24.75 29.0833 24.6253 28.8833 24.576 28.65C24.5253 28.4167 24.5667 28.2 24.7 28L25.9 26C26.0333 25.8 26.2 25.658 26.4 25.574C26.6 25.4913 26.8167 25.4833 27.05 25.55L29.2 26.2C29.5667 25.9333 29.9247 25.708 30.274 25.524C30.6247 25.3413 31 25.1667 31.4 25L31.85 22.8C31.9167 22.5667 32.0333 22.3753 32.2 22.226C32.3667 22.0753 32.5667 22 32.8 22H35.2C35.4333 22 35.6333 22.0753 35.8 22.226C35.9667 22.3753 36.0833 22.5667 36.15 22.8L36.6 25C37 25.1667 37.3753 25.35 37.726 25.55C38.0753 25.75 38.4333 26 38.8 26.3L40.9 25.55C41.1333 25.45 41.3587 25.45 41.576 25.55C41.792 25.65 41.9667 25.8 42.1 26L43.3 28.1C43.4333 28.3 43.4833 28.5167 43.45 28.75C43.4167 28.9833 43.3 29.1833 43.1 29.35L41.4 30.8C41.4667 31.2 41.5 31.6167 41.5 32.05C41.5 32.4833 41.4667 32.9 41.4 33.3L43.05 34.75C43.25 34.9167 43.3747 35.1167 43.424 35.35C43.4747 35.5833 43.4333 35.8 43.3 36L42.1 38C41.9667 38.2 41.8 38.3413 41.6 38.424C41.4 38.508 41.1833 38.5167 40.95 38.45L38.8 37.8C38.4333 38.0667 38.0753 38.292 37.726 38.476C37.3753 38.6587 37 38.8333 36.6 39L36.15 41.2C36.0833 41.4333 35.9667 41.6247 35.8 41.774C35.6333 41.9247 35.4333 42 35.2 42H32.8C32.5667 42 32.3667 41.9247 32.2 41.774C32.0333 41.6247 31.9167 41.4333 31.85 41.2L31.4 39Z" fill="white" stroke="#171427" stroke-width="0.5"/>
</svg>
