<svg width="48" height="48" viewBox="0 0 48 48" fill="none" xmlns="http://www.w3.org/2000/svg">
<path d="M9 9C9 5.68629 11.6863 3 15 3C18.3137 3 21 5.68629 21 9C21 10.9343 20.0847 12.6548 18.6636 13.752C18.6208 13.7835 18.5784 13.8154 18.5362 13.8477C17.5446 14.5723 16.3222 15 15 15C11.6863 15 9 12.3137 9 9ZM15 6C13.3432 6 12 7.34316 12 9C12 10.6568 13.3432 12 15 12C16.6568 12 18 10.6568 18 9C18 7.34316 16.6568 6 15 6ZM29.3364 13.752C27.9153 12.6548 27 10.9343 27 9C27 5.68629 29.6863 3 33 3C36.3138 3 39 5.68629 39 9C39 12.3137 36.3138 15 33 15C31.6779 15 30.4554 14.5723 29.4638 13.8477C29.4216 13.8154 29.3792 13.7835 29.3364 13.752ZM33 6C31.3431 6 30 7.34316 30 9C30 10.6568 31.3431 12 33 12C34.6569 12 36 10.6568 36 9C36 7.34316 34.6569 6 33 6ZM7.49994 18H15.5121C15.1805 18.9383 15 19.9481 15 21H7.49994C6.67161 21 6 21.6716 6 22.5C6 24.9507 6.97359 26.7682 8.5143 28.0049C9.22272 28.5735 10.0711 29.0339 11.0302 29.3686C10.3336 30.111 9.78633 30.9951 9.43641 31.9728C8.41653 31.5579 7.47294 31.0158 6.63645 30.3444C4.37691 28.5308 3 25.8482 3 22.5C3 20.0148 5.01468 18 7.49994 18ZM18.8027 18C18.2922 18.8825 18 19.9071 18 21C18 23.5306 19.5667 25.6953 21.783 26.5771C22.4689 26.85 23.2169 27 24 27C24.7831 27 25.5312 26.85 26.217 26.5771C28.4333 25.6953 30 23.5306 30 21C30 19.9071 29.7078 18.8825 29.1973 18C28.1599 16.2066 26.2208 15 24 15C21.7792 15 19.8401 16.2066 18.8027 18ZM23.3269 18.0758C23.5433 18.0262 23.7686 18 24 18C24.2314 18 24.4567 18.0262 24.6731 18.0758C26.0059 18.3813 27 19.5746 27 21C27 21.2314 26.9738 21.4567 26.9242 21.6731C26.6187 23.0059 25.4254 24 24 24C22.5746 24 21.3813 23.0059 21.0758 21.6731C21.0262 21.4568 21 21.2314 21 21C21 19.5746 21.9941 18.3813 23.3269 18.0758ZM39.4857 28.0049C38.7774 28.5735 37.929 29.0339 36.9699 29.3686C37.6665 30.111 38.2137 30.9951 38.5635 31.9728C39.5835 31.5579 40.527 31.0158 41.3637 30.3444C43.623 28.5308 45 25.8482 45 22.5C45 20.0147 42.9852 18 40.5 18H32.4879C32.8194 18.9383 33 19.9481 33 21H40.5C41.3283 21 42 21.6716 42 22.5C42 24.9507 41.0265 26.7682 39.4857 28.0049ZM31.5 30C33.3777 30 34.9866 31.1499 35.6613 32.784C35.8794 33.3129 36 33.8925 36 34.5C36 37.8483 34.623 40.5309 32.3637 42.3444C30.1398 44.1294 27.1592 45 24 45C20.8408 45 17.8603 44.1294 15.6364 42.3444C13.3769 40.5309 12 37.8483 12 34.5C12 33.8925 12.1204 33.3129 12.3388 32.784C13.0133 31.1499 14.6224 30 16.4999 30H31.5ZM31.5 33H16.4999C15.6716 33 15 33.6717 15 34.5C15 36.9507 15.9736 38.7681 17.5143 40.0047C19.0907 41.2701 21.3602 42 24 42C26.6398 42 28.9093 41.2701 30.4857 40.0047C32.0265 38.7681 33 36.9507 33 34.5C33 33.6717 32.3283 33 31.5 33Z" fill="white"/>
</svg>
