<svg width="48" height="48" viewBox="0 0 48 48" fill="none" xmlns="http://www.w3.org/2000/svg">
<path d="M17.731 36.6576C18.2517 37.1784 18.3095 37.9867 17.9045 38.5712L17.731 38.7789L16.1427 40.3674C15.5569 40.953 14.6072 40.953 14.0213 40.3674C13.5007 39.8466 13.4428 39.0382 13.8478 38.4538L14.0213 38.2461L15.6097 36.6576C16.1954 36.072 17.1452 36.072 17.731 36.6576ZM14.5468 33.4731C15.0675 33.9939 15.1253 34.8022 14.7203 35.3867L14.5468 35.5944L10.586 39.5553C10.0003 40.1409 9.05053 40.1409 8.46472 39.5553C7.94402 39.0345 7.88617 38.2261 8.29115 37.6416L8.46472 37.434L12.4255 33.4731C13.0112 32.8872 13.961 32.8872 14.5468 33.4731ZM37.5177 6.68609C39.3363 7.25873 40.761 8.68328 41.3334 10.502C42.8882 15.4392 41.6926 20.8115 38.2369 24.6182L37.7517 25.1274L35.865 27.014C36.9152 29.454 36.5389 32.361 34.7365 34.4664L34.3569 34.8765L32.0004 37.233C31.4796 37.7538 30.6713 37.8116 30.0868 37.4066L29.879 37.233L27.3289 34.6827C25.9828 35.035 24.5054 34.7541 23.3689 33.8399L23.0033 33.5118L22.5037 33.012L21.117 35.3292C20.8796 35.7258 20.4727 35.9907 20.014 36.0474C19.647 36.0927 19.2797 36.0008 18.9801 35.7948L18.7692 35.6193L12.4002 29.2503C12.0733 28.9234 11.9154 28.464 11.9722 28.0053C12.0177 27.6382 12.1965 27.3043 12.4694 27.064L12.6911 26.9022L15.0083 25.5167L14.5079 25.0163C13.4529 23.9613 13.0312 22.5128 13.2429 21.1432L13.337 20.6903L10.7872 18.1405C10.2665 17.6198 10.2087 16.8116 10.6137 16.227L10.7872 16.0192L13.1437 13.6628C15.1364 11.67 18.0154 11.1035 20.512 11.9634L21.0059 12.1543L22.8923 10.2679C26.7188 6.44141 32.3559 5.06084 37.5177 6.68609ZM11.3618 30.2889C11.9476 30.8748 11.9476 31.8246 11.3618 32.4102L9.77353 33.9984C9.18775 34.5843 8.23801 34.5843 7.65223 33.9984C7.06645 33.4128 7.06645 32.463 7.65223 31.8771L9.24052 30.2889C9.8263 29.7031 10.7761 29.7031 11.3618 30.2889ZM33.4272 29.4518L29.8839 32.9952L30.9396 34.0509L32.2353 32.7552C33.1395 31.8513 33.5367 30.6324 33.4272 29.4518ZM17.1958 27.7042L15.8821 28.4896L19.5305 32.1381L20.3165 30.825L17.1958 27.7042ZM25.5046 11.9261L25.0136 12.3892L16.6292 20.7736C16.1085 21.2943 16.0507 22.1026 16.4557 22.6872L16.6292 22.895L25.1247 31.3905C25.6454 31.911 26.4536 31.9688 27.0382 31.564L27.246 31.3905L35.6304 23.006C38.6661 19.9703 39.7614 15.498 38.472 11.403C38.1936 10.5187 37.5009 9.82601 36.6165 9.54758C32.7371 8.32604 28.5191 9.24479 25.5046 11.9261ZM31.9698 16.05C33.8673 17.9477 33.8826 21.0273 31.9815 22.9284C30.0804 24.8295 27.001 24.8142 25.1033 22.9165C23.2056 21.0188 23.1902 17.9392 25.0913 16.0381C26.9925 14.137 30.072 14.1524 31.9698 16.05ZM27.2127 18.1594C26.4932 18.879 26.4884 20.059 27.2246 20.7951C27.9608 21.5313 29.1408 21.5266 29.8603 20.8071C30.5799 20.0876 30.5844 18.9075 29.8484 18.1714C29.1122 17.4352 27.9322 17.4399 27.2127 18.1594ZM15.618 15.4689L15.265 15.7841L13.9692 17.0799L15.0248 18.1354L18.5679 14.5923C17.5349 14.4967 16.4729 14.7889 15.618 15.4689Z" fill="white"/>
</svg>
