<svg width="48" height="48" viewBox="0 0 48 48" fill="none" xmlns="http://www.w3.org/2000/svg">
<path d="M17.273 16.2411L22.6549 5.33615C23.2051 4.22128 24.7949 4.22128 25.3451 5.33615L30.727 16.2411L42.7613 17.9898C43.9916 18.1685 44.4829 19.6805 43.5926 20.5483L34.8845 29.0366L36.9402 41.0223C37.1504 42.2476 35.8642 43.1821 34.7638 42.6035L24 36.9447L13.2362 42.6035C12.1358 43.1821 10.8496 42.2476 11.0598 41.0223L13.1155 29.0366L4.40738 20.5483C3.5171 19.6805 4.00837 18.1685 5.2387 17.9898L17.273 16.2411ZM19.6142 18.2759C19.3957 18.7186 18.9734 19.0255 18.4848 19.0965L8.67784 20.5215L15.7742 27.4388C16.1277 27.7834 16.2891 28.2799 16.2056 28.7665L14.5304 38.5338L23.302 33.9223C23.739 33.6926 24.261 33.6926 24.698 33.9223L33.4696 38.5338L31.7944 28.7665C31.7109 28.2799 31.8723 27.7834 32.2258 27.4388L39.3222 20.5215L29.5152 19.0965C29.0266 19.0255 28.6043 18.7186 28.3858 18.2759L24 9.38933L19.6142 18.2759Z" fill="white"/>
</svg>
