<svg width="24" height="24" viewBox="0 0 24 24" fill="none" xmlns="http://www.w3.org/2000/svg">
<path d="M22.4999 3.5889C22.5002 3.31271 22.2765 3.08865 22.0003 3.08841C21.9105 3.08835 21.8223 3.11246 21.7451 3.15823C21.0412 3.57773 20.2766 3.88577 19.4785 4.07132C18.6068 3.23868 17.4466 2.77597 16.2411 2.7803C13.6322 2.78354 11.5182 4.89798 11.5156 7.50687C11.5156 7.64163 11.5214 7.77835 11.5341 7.91605C8.51123 7.59457 5.73767 6.09201 3.81732 3.73538C3.64197 3.52145 3.32635 3.4902 3.11242 3.66556C3.06567 3.70389 3.02624 3.7504 2.99603 3.80276C2.58154 4.5264 2.36371 5.34586 2.36419 6.17978C2.36285 7.09512 2.6275 7.99112 3.12591 8.75882C3.10638 8.74808 3.08594 8.73733 3.06634 8.72562C2.90674 8.64774 2.71789 8.65964 2.56927 8.75687C2.41461 8.85727 2.32153 9.02945 2.3222 9.2139C2.31805 9.33212 2.32525 9.45053 2.34369 9.56735C2.43945 10.9027 3.10107 12.1336 4.16205 12.9502C4.06946 12.9771 3.98688 13.0308 3.92474 13.1045C3.81146 13.2359 3.77447 13.4167 3.82709 13.5821C4.2959 15.0438 5.44854 16.1847 6.91491 16.6387C5.43957 17.4646 3.74035 17.8017 2.0614 17.6016C1.78717 17.568 1.5376 17.763 1.50396 18.0373C1.48065 18.2277 1.56823 18.4146 1.72943 18.5186C3.73858 19.8125 6.07794 20.5004 8.46771 20.5C14.0425 20.5618 18.9616 16.8659 20.454 11.4942C20.793 10.3567 20.9659 9.17624 20.9677 7.98929C20.9677 7.86917 20.9677 7.74417 20.9648 7.61722C22.0166 6.54776 22.5732 5.08713 22.4999 3.5889ZM20.0761 7.1221C19.994 7.21909 19.9521 7.34384 19.9589 7.47073C19.9677 7.64749 19.9677 7.82327 19.9677 7.98929C19.9657 9.0806 19.8065 10.166 19.4951 11.2119C18.1668 16.1846 13.6136 19.6068 8.46771 19.5C6.94183 19.5006 5.43133 19.1955 4.02533 18.6026C5.67798 18.4192 7.24579 17.7749 8.54974 16.7432C8.76697 16.5724 8.80462 16.2579 8.63385 16.0407C8.54107 15.9226 8.40008 15.8524 8.24994 15.8496C6.94848 15.8287 5.75329 15.1271 5.10052 14.001C5.52459 14.0023 5.94671 13.9438 6.35443 13.8272C6.61969 13.751 6.77295 13.4743 6.69677 13.209C6.64502 13.0287 6.49658 12.8925 6.31244 12.8565C4.84887 12.5638 3.70379 11.4218 3.40716 9.95901C3.83172 10.0965 4.27362 10.1731 4.71966 10.1866C4.9461 10.2034 5.15259 10.0571 5.21185 9.83792C5.27929 9.62503 5.19763 9.39322 5.01166 9.26956C3.97845 8.58163 3.35962 7.42099 3.36419 6.17972C3.36389 5.76724 3.43115 5.35751 3.56341 4.96683C5.7807 7.36111 8.84546 8.79471 12.1044 8.96194C12.2625 8.97867 12.4177 8.91074 12.5126 8.78323C12.6132 8.66251 12.6515 8.50174 12.6161 8.34866C12.55 8.07291 12.5162 7.79044 12.5156 7.50687C12.5175 5.44992 14.1842 3.78281 16.2411 3.7803C17.2695 3.77737 18.2521 4.2048 18.9512 4.95901C19.069 5.08511 19.2438 5.14127 19.4131 5.10745C20.1227 4.96786 20.8127 4.74222 21.4677 4.43558C21.2975 5.45505 20.8107 6.39499 20.0761 7.1221Z" fill="white" stroke="white" stroke-width="0.5"/>
</svg>
