<svg width="48" height="48" viewBox="0 0 48 48" fill="none" xmlns="http://www.w3.org/2000/svg">
<path d="M40.2695 21.0633L37.5683 25.7418C37.0409 26.6553 37.3538 27.8235 38.2673 28.3509C39.1811 28.8784 40.3493 28.5654 40.8767 27.6518L43.577 22.9748C45.1097 24.7688 45.4286 27.4031 44.1815 29.5631C43.0295 31.5582 40.859 32.5986 38.7059 32.4066L33.743 41.0022C33.0839 42.1443 31.6235 42.5355 30.4817 41.8761C29.3397 41.217 28.9484 39.7566 29.6078 38.6148L34.5602 30.0366C33.2918 28.2644 33.0959 25.8432 34.2566 23.8329C35.5046 21.6715 37.9481 20.6306 40.2695 21.0633ZM31.5038 6.00366C35.6459 6.00366 39.0038 9.36153 39.0038 13.5037V17.97C37.9745 17.9963 36.9578 18.2044 36.0038 18.5815V15.0001H9.00378V31.5036C9.00378 33.9888 11.0185 36.0036 13.5038 36.0036H27.6512L27.0097 37.1148C26.6626 37.716 26.4445 38.3562 26.3469 39.0036H13.5038C9.36165 39.0036 6.00378 35.6457 6.00378 31.5036V13.5037C6.00378 9.36153 9.36165 6.00366 13.5038 6.00366H31.5038ZM26.5648 18.4423L31.2512 23.1287C30.4781 24.849 30.3083 26.7128 30.6689 28.4595L26.5648 32.5635C25.979 33.1494 25.0293 33.1494 24.4435 32.5635C23.8577 31.9779 23.8577 31.0281 24.4435 30.4422L29.3828 25.5029L24.4435 20.5636C23.8577 19.9778 23.8577 19.0281 24.4435 18.4423C25.0293 17.8565 25.979 17.8565 26.5648 18.4423ZM20.5626 18.4423C21.1484 19.028 21.1484 19.9778 20.5626 20.5636L15.6233 25.5029L20.5626 30.4422C21.1484 31.0281 21.1484 31.9779 20.5626 32.5635C19.9768 33.1494 19.0271 33.1494 18.4413 32.5635L12.4413 26.5636C12.16 26.2823 12.002 25.9008 12.002 25.5029C12.002 25.1051 12.16 24.7236 12.4413 24.4423L18.4413 18.4423C19.0271 17.8565 19.9768 17.8565 20.5626 18.4423Z" fill="white"/>
</svg>
